<svg xmlns="http://www.w3.org/2000/svg" xmlns:xlink="http://www.w3.org/1999/xlink" width="1366" zoomAndPan="magnify" viewBox="0 0 1024.5 539.25" height="719" preserveAspectRatio="xMidYMid meet" version="1.0"><defs><filter x="0%" y="0%" width="100%" height="100%" id="d912046f74"><feColorMatrix values="0 0 0 0 1 0 0 0 0 1 0 0 0 0 1 0 0 0 1 0" color-interpolation-filters="sRGB"/></filter><clipPath id="3d2ec79eec"><path d="M 0.460938 0 L 1023.539062 0 L 1023.539062 538.5 L 0.460938 538.5 Z M 0.460938 0 " clip-rule="nonzero"/></clipPath><clipPath id="47489bcf7d"><path d="M 0.460938 0 L 241 0 L 241 271 L 0.460938 271 Z M 0.460938 0 " clip-rule="nonzero"/></clipPath><mask id="59dc3bcf2f"><g filter="url(#d912046f74)"><rect x="-102.45" width="1229.4" fill="#000000" y="-53.925" height="647.1" fill-opacity="0.7"/></g></mask><clipPath id="7fdc7fdb63"><path d="M 32 110 L 187 110 L 187 215 L 32 215 Z M 32 110 " clip-rule="nonzero"/></clipPath><clipPath id="6aaf91d6b7"><path d="M 62.269531 -15.3125 L 239.617188 103.472656 L 128.75 268.996094 L -48.597656 150.210938 Z M 62.269531 -15.3125 " clip-rule="nonzero"/></clipPath><clipPath id="262adbef17"><path d="M 62.269531 -15.3125 L 239.617188 103.472656 L 128.75 268.996094 L -48.597656 150.210938 Z M 62.269531 -15.3125 " clip-rule="nonzero"/></clipPath><clipPath id="eb4e40fe7a"><path d="M 62.269531 -15.3125 L 239.617188 103.472656 L 128.75 268.996094 L -48.597656 150.210938 Z M 62.269531 -15.3125 " clip-rule="nonzero"/></clipPath><clipPath id="b806c1aee9"><path d="M 27 109 L 163 109 L 163 223 L 27 223 Z M 27 109 " clip-rule="nonzero"/></clipPath><clipPath id="bf83fa888c"><path d="M 62.269531 -15.3125 L 239.617188 103.472656 L 128.75 268.996094 L -48.597656 150.210938 Z M 62.269531 -15.3125 " clip-rule="nonzero"/></clipPath><clipPath id="2273dc4189"><path d="M 62.269531 -15.3125 L 239.617188 103.472656 L 128.75 268.996094 L -48.597656 150.210938 Z M 62.269531 -15.3125 " clip-rule="nonzero"/></clipPath><clipPath id="b154647889"><path d="M 62.269531 -15.3125 L 239.617188 103.472656 L 128.75 268.996094 L -48.597656 150.210938 Z M 62.269531 -15.3125 " clip-rule="nonzero"/></clipPath><clipPath id="7e7236248b"><path d="M 29 107 L 178 107 L 178 219 L 29 219 Z M 29 107 " clip-rule="nonzero"/></clipPath><clipPath id="89ae34b160"><path d="M 62.269531 -15.3125 L 239.617188 103.472656 L 128.75 268.996094 L -48.597656 150.210938 Z M 62.269531 -15.3125 " clip-rule="nonzero"/></clipPath><clipPath id="e721aee8ab"><path d="M 62.269531 -15.3125 L 239.617188 103.472656 L 128.75 268.996094 L -48.597656 150.210938 Z M 62.269531 -15.3125 " clip-rule="nonzero"/></clipPath><clipPath id="79ad3227fb"><path d="M 62.269531 -15.3125 L 239.617188 103.472656 L 128.75 268.996094 L -48.597656 150.210938 Z M 62.269531 -15.3125 " clip-rule="nonzero"/></clipPath><clipPath id="408600501f"><path d="M 18 87 L 150 87 L 150 222 L 18 222 Z M 18 87 " clip-rule="nonzero"/></clipPath><clipPath id="9b264af51a"><path d="M 62.269531 -15.3125 L 239.617188 103.472656 L 128.75 268.996094 L -48.597656 150.210938 Z M 62.269531 -15.3125 " clip-rule="nonzero"/></clipPath><clipPath id="fb87165768"><path d="M 62.269531 -15.3125 L 239.617188 103.472656 L 128.75 268.996094 L -48.597656 150.210938 Z M 62.269531 -15.3125 " clip-rule="nonzero"/></clipPath><clipPath id="ebf0728ce8"><path d="M 62.269531 -15.3125 L 239.617188 103.472656 L 128.75 268.996094 L -48.597656 150.210938 Z M 62.269531 -15.3125 " clip-rule="nonzero"/></clipPath><clipPath id="31929b1948"><path d="M 8 83 L 143 83 L 143 225 L 8 225 Z M 8 83 " clip-rule="nonzero"/></clipPath><clipPath id="2c04c3e873"><path d="M 62.269531 -15.3125 L 239.617188 103.472656 L 128.75 268.996094 L -48.597656 150.210938 Z M 62.269531 -15.3125 " clip-rule="nonzero"/></clipPath><clipPath id="7ddcf9cb9d"><path d="M 62.269531 -15.3125 L 239.617188 103.472656 L 128.75 268.996094 L -48.597656 150.210938 Z M 62.269531 -15.3125 " clip-rule="nonzero"/></clipPath><clipPath id="89dd78b50d"><path d="M 62.269531 -15.3125 L 239.617188 103.472656 L 128.75 268.996094 L -48.597656 150.210938 Z M 62.269531 -15.3125 " clip-rule="nonzero"/></clipPath><clipPath id="d605abb022"><path d="M 29 99 L 79 99 L 79 187 L 29 187 Z M 29 99 " clip-rule="nonzero"/></clipPath><clipPath id="97386ac7ff"><path d="M 62.269531 -15.3125 L 239.617188 103.472656 L 128.75 268.996094 L -48.597656 150.210938 Z M 62.269531 -15.3125 " clip-rule="nonzero"/></clipPath><clipPath id="8f1187ac9e"><path d="M 62.269531 -15.3125 L 239.617188 103.472656 L 128.75 268.996094 L -48.597656 150.210938 Z M 62.269531 -15.3125 " clip-rule="nonzero"/></clipPath><clipPath id="627a535609"><path d="M 62.269531 -15.3125 L 239.617188 103.472656 L 128.75 268.996094 L -48.597656 150.210938 Z M 62.269531 -15.3125 " clip-rule="nonzero"/></clipPath><clipPath id="6d62ba8615"><path d="M 38 100 L 84 100 L 84 174 L 38 174 Z M 38 100 " clip-rule="nonzero"/></clipPath><clipPath id="9ee451a21d"><path d="M 62.269531 -15.3125 L 239.617188 103.472656 L 128.75 268.996094 L -48.597656 150.210938 Z M 62.269531 -15.3125 " clip-rule="nonzero"/></clipPath><clipPath id="326fd1c0da"><path d="M 62.269531 -15.3125 L 239.617188 103.472656 L 128.75 268.996094 L -48.597656 150.210938 Z M 62.269531 -15.3125 " clip-rule="nonzero"/></clipPath><clipPath id="172ce2ec78"><path d="M 62.269531 -15.3125 L 239.617188 103.472656 L 128.75 268.996094 L -48.597656 150.210938 Z M 62.269531 -15.3125 " clip-rule="nonzero"/></clipPath><clipPath id="9a96227450"><path d="M 43 101 L 88 101 L 88 166 L 43 166 Z M 43 101 " clip-rule="nonzero"/></clipPath><clipPath id="d821daf2f5"><path d="M 62.269531 -15.3125 L 239.617188 103.472656 L 128.75 268.996094 L -48.597656 150.210938 Z M 62.269531 -15.3125 " clip-rule="nonzero"/></clipPath><clipPath id="7a0156f80d"><path d="M 62.269531 -15.3125 L 239.617188 103.472656 L 128.75 268.996094 L -48.597656 150.210938 Z M 62.269531 -15.3125 " clip-rule="nonzero"/></clipPath><clipPath id="859a53e1f8"><path d="M 62.269531 -15.3125 L 239.617188 103.472656 L 128.75 268.996094 L -48.597656 150.210938 Z M 62.269531 -15.3125 " clip-rule="nonzero"/></clipPath><clipPath id="9917b81af2"><path d="M 22 97 L 73 97 L 73 198 L 22 198 Z M 22 97 " clip-rule="nonzero"/></clipPath><clipPath id="898e838148"><path d="M 62.269531 -15.3125 L 239.617188 103.472656 L 128.75 268.996094 L -48.597656 150.210938 Z M 62.269531 -15.3125 " clip-rule="nonzero"/></clipPath><clipPath id="e5fef2ef78"><path d="M 62.269531 -15.3125 L 239.617188 103.472656 L 128.75 268.996094 L -48.597656 150.210938 Z M 62.269531 -15.3125 " clip-rule="nonzero"/></clipPath><clipPath id="a31033947e"><path d="M 62.269531 -15.3125 L 239.617188 103.472656 L 128.75 268.996094 L -48.597656 150.210938 Z M 62.269531 -15.3125 " clip-rule="nonzero"/></clipPath><clipPath id="f9764b0c65"><path d="M 14 95 L 73 95 L 73 209 L 14 209 Z M 14 95 " clip-rule="nonzero"/></clipPath><clipPath id="7bf5b2dc6a"><path d="M 62.269531 -15.3125 L 239.617188 103.472656 L 128.75 268.996094 L -48.597656 150.210938 Z M 62.269531 -15.3125 " clip-rule="nonzero"/></clipPath><clipPath id="7d59f9fd77"><path d="M 62.269531 -15.3125 L 239.617188 103.472656 L 128.75 268.996094 L -48.597656 150.210938 Z M 62.269531 -15.3125 " clip-rule="nonzero"/></clipPath><clipPath id="900d3f76b2"><path d="M 62.269531 -15.3125 L 239.617188 103.472656 L 128.75 268.996094 L -48.597656 150.210938 Z M 62.269531 -15.3125 " clip-rule="nonzero"/></clipPath><clipPath id="2bcca90f27"><path d="M 35 113 L 188 113 L 188 211 L 35 211 Z M 35 113 " clip-rule="nonzero"/></clipPath><clipPath id="f7d980b054"><path d="M 62.269531 -15.3125 L 239.617188 103.472656 L 128.75 268.996094 L -48.597656 150.210938 Z M 62.269531 -15.3125 " clip-rule="nonzero"/></clipPath><clipPath id="edde051bdf"><path d="M 62.269531 -15.3125 L 239.617188 103.472656 L 128.75 268.996094 L -48.597656 150.210938 Z M 62.269531 -15.3125 " clip-rule="nonzero"/></clipPath><clipPath id="9d990f9d54"><path d="M 62.269531 -15.3125 L 239.617188 103.472656 L 128.75 268.996094 L -48.597656 150.210938 Z M 62.269531 -15.3125 " clip-rule="nonzero"/></clipPath><clipPath id="4e1b625b55"><path d="M 24 105 L 148 105 L 148 240 L 24 240 Z M 24 105 " clip-rule="nonzero"/></clipPath><clipPath id="8a1bea9eed"><path d="M 62.269531 -15.3125 L 239.617188 103.472656 L 128.75 268.996094 L -48.597656 150.210938 Z M 62.269531 -15.3125 " clip-rule="nonzero"/></clipPath><clipPath id="bd3ff5f5d2"><path d="M 62.269531 -15.3125 L 239.617188 103.472656 L 128.75 268.996094 L -48.597656 150.210938 Z M 62.269531 -15.3125 " clip-rule="nonzero"/></clipPath><clipPath id="c661879aa6"><path d="M 62.269531 -15.3125 L 239.617188 103.472656 L 128.75 268.996094 L -48.597656 150.210938 Z M 62.269531 -15.3125 " clip-rule="nonzero"/></clipPath><clipPath id="a28be18794"><path d="M 37 24 L 100 24 L 100 96 L 37 96 Z M 37 24 " clip-rule="nonzero"/></clipPath><clipPath id="9ae5842cde"><path d="M 62.269531 -15.3125 L 239.617188 103.472656 L 128.75 268.996094 L -48.597656 150.210938 Z M 62.269531 -15.3125 " clip-rule="nonzero"/></clipPath><clipPath id="c4c8d4426c"><path d="M 62.269531 -15.3125 L 239.617188 103.472656 L 128.75 268.996094 L -48.597656 150.210938 Z M 62.269531 -15.3125 " clip-rule="nonzero"/></clipPath><clipPath id="83065dda7f"><path d="M 62.269531 -15.3125 L 239.617188 103.472656 L 128.75 268.996094 L -48.597656 150.210938 Z M 62.269531 -15.3125 " clip-rule="nonzero"/></clipPath><clipPath id="b800c4975f"><path d="M 20 45 L 103 45 L 103 98 L 20 98 Z M 20 45 " clip-rule="nonzero"/></clipPath><clipPath id="8069ab6b6e"><path d="M 62.269531 -15.3125 L 239.617188 103.472656 L 128.75 268.996094 L -48.597656 150.210938 Z M 62.269531 -15.3125 " clip-rule="nonzero"/></clipPath><clipPath id="e67468f59e"><path d="M 62.269531 -15.3125 L 239.617188 103.472656 L 128.75 268.996094 L -48.597656 150.210938 Z M 62.269531 -15.3125 " clip-rule="nonzero"/></clipPath><clipPath id="6e6cba9c1c"><path d="M 62.269531 -15.3125 L 239.617188 103.472656 L 128.75 268.996094 L -48.597656 150.210938 Z M 62.269531 -15.3125 " clip-rule="nonzero"/></clipPath><clipPath id="f54c97e4cc"><path d="M 16 69 L 102 69 L 102 101 L 16 101 Z M 16 69 " clip-rule="nonzero"/></clipPath><clipPath id="3741aec3ab"><path d="M 62.269531 -15.3125 L 239.617188 103.472656 L 128.75 268.996094 L -48.597656 150.210938 Z M 62.269531 -15.3125 " clip-rule="nonzero"/></clipPath><clipPath id="98d3495640"><path d="M 62.269531 -15.3125 L 239.617188 103.472656 L 128.75 268.996094 L -48.597656 150.210938 Z M 62.269531 -15.3125 " clip-rule="nonzero"/></clipPath><clipPath id="8861ef5cac"><path d="M 62.269531 -15.3125 L 239.617188 103.472656 L 128.75 268.996094 L -48.597656 150.210938 Z M 62.269531 -15.3125 " clip-rule="nonzero"/></clipPath><clipPath id="25f4dd5395"><path d="M 13 92 L 102 92 L 102 106 L 13 106 Z M 13 92 " clip-rule="nonzero"/></clipPath><clipPath id="9d07da5f2e"><path d="M 62.269531 -15.3125 L 239.617188 103.472656 L 128.75 268.996094 L -48.597656 150.210938 Z M 62.269531 -15.3125 " clip-rule="nonzero"/></clipPath><clipPath id="0dc04ab029"><path d="M 62.269531 -15.3125 L 239.617188 103.472656 L 128.75 268.996094 L -48.597656 150.210938 Z M 62.269531 -15.3125 " clip-rule="nonzero"/></clipPath><clipPath id="bf102aed52"><path d="M 62.269531 -15.3125 L 239.617188 103.472656 L 128.75 268.996094 L -48.597656 150.210938 Z M 62.269531 -15.3125 " clip-rule="nonzero"/></clipPath><clipPath id="8f75e8b586"><path d="M 10 94 L 99 94 L 99 116 L 10 116 Z M 10 94 " clip-rule="nonzero"/></clipPath><clipPath id="77236a2fba"><path d="M 62.269531 -15.3125 L 239.617188 103.472656 L 128.75 268.996094 L -48.597656 150.210938 Z M 62.269531 -15.3125 " clip-rule="nonzero"/></clipPath><clipPath id="6f9d851615"><path d="M 62.269531 -15.3125 L 239.617188 103.472656 L 128.75 268.996094 L -48.597656 150.210938 Z M 62.269531 -15.3125 " clip-rule="nonzero"/></clipPath><clipPath id="035220e001"><path d="M 62.269531 -15.3125 L 239.617188 103.472656 L 128.75 268.996094 L -48.597656 150.210938 Z M 62.269531 -15.3125 " clip-rule="nonzero"/></clipPath><clipPath id="cffa7bdc9a"><path d="M 15 94 L 100 94 L 100 130 L 15 130 Z M 15 94 " clip-rule="nonzero"/></clipPath><clipPath id="db7147a6d1"><path d="M 62.269531 -15.3125 L 239.617188 103.472656 L 128.75 268.996094 L -48.597656 150.210938 Z M 62.269531 -15.3125 " clip-rule="nonzero"/></clipPath><clipPath id="1db328d02a"><path d="M 62.269531 -15.3125 L 239.617188 103.472656 L 128.75 268.996094 L -48.597656 150.210938 Z M 62.269531 -15.3125 " clip-rule="nonzero"/></clipPath><clipPath id="9bb9798486"><path d="M 62.269531 -15.3125 L 239.617188 103.472656 L 128.75 268.996094 L -48.597656 150.210938 Z M 62.269531 -15.3125 " clip-rule="nonzero"/></clipPath><clipPath id="bb9e068467"><path d="M 31 94 L 100 94 L 100 146 L 31 146 Z M 31 94 " clip-rule="nonzero"/></clipPath><clipPath id="08e4355cee"><path d="M 62.269531 -15.3125 L 239.617188 103.472656 L 128.75 268.996094 L -48.597656 150.210938 Z M 62.269531 -15.3125 " clip-rule="nonzero"/></clipPath><clipPath id="39a2130e8e"><path d="M 62.269531 -15.3125 L 239.617188 103.472656 L 128.75 268.996094 L -48.597656 150.210938 Z M 62.269531 -15.3125 " clip-rule="nonzero"/></clipPath><clipPath id="b82e3a07e2"><path d="M 62.269531 -15.3125 L 239.617188 103.472656 L 128.75 268.996094 L -48.597656 150.210938 Z M 62.269531 -15.3125 " clip-rule="nonzero"/></clipPath><clipPath id="82fd7bfd58"><path d="M 61 76 L 138 76 L 138 100 L 61 100 Z M 61 76 " clip-rule="nonzero"/></clipPath><clipPath id="031e5fc1fa"><path d="M 62.269531 -15.3125 L 239.617188 103.472656 L 128.75 268.996094 L -48.597656 150.210938 Z M 62.269531 -15.3125 " clip-rule="nonzero"/></clipPath><clipPath id="2c38535cbc"><path d="M 62.269531 -15.3125 L 239.617188 103.472656 L 128.75 268.996094 L -48.597656 150.210938 Z M 62.269531 -15.3125 " clip-rule="nonzero"/></clipPath><clipPath id="984503aa59"><path d="M 62.269531 -15.3125 L 239.617188 103.472656 L 128.75 268.996094 L -48.597656 150.210938 Z M 62.269531 -15.3125 " clip-rule="nonzero"/></clipPath><clipPath id="9fa7e891e3"><path d="M 56 66 L 131 66 L 131 95 L 56 95 Z M 56 66 " clip-rule="nonzero"/></clipPath><clipPath id="53f57dc40c"><path d="M 62.269531 -15.3125 L 239.617188 103.472656 L 128.75 268.996094 L -48.597656 150.210938 Z M 62.269531 -15.3125 " clip-rule="nonzero"/></clipPath><clipPath id="fd931a8289"><path d="M 62.269531 -15.3125 L 239.617188 103.472656 L 128.75 268.996094 L -48.597656 150.210938 Z M 62.269531 -15.3125 " clip-rule="nonzero"/></clipPath><clipPath id="a7ccfc94c1"><path d="M 62.269531 -15.3125 L 239.617188 103.472656 L 128.75 268.996094 L -48.597656 150.210938 Z M 62.269531 -15.3125 " clip-rule="nonzero"/></clipPath><clipPath id="5b6071708b"><path d="M 49 47 L 126 47 L 126 90 L 49 90 Z M 49 47 " clip-rule="nonzero"/></clipPath><clipPath id="a45f05d440"><path d="M 62.269531 -15.3125 L 239.617188 103.472656 L 128.75 268.996094 L -48.597656 150.210938 Z M 62.269531 -15.3125 " clip-rule="nonzero"/></clipPath><clipPath id="df7490165a"><path d="M 62.269531 -15.3125 L 239.617188 103.472656 L 128.75 268.996094 L -48.597656 150.210938 Z M 62.269531 -15.3125 " clip-rule="nonzero"/></clipPath><clipPath id="db489aebd0"><path d="M 62.269531 -15.3125 L 239.617188 103.472656 L 128.75 268.996094 L -48.597656 150.210938 Z M 62.269531 -15.3125 " clip-rule="nonzero"/></clipPath><clipPath id="17b4b0fc00"><path d="M 98 31 L 133 31 L 133 81 L 98 81 Z M 98 31 " clip-rule="nonzero"/></clipPath><clipPath id="652c2f6563"><path d="M 62.269531 -15.3125 L 239.617188 103.472656 L 128.75 268.996094 L -48.597656 150.210938 Z M 62.269531 -15.3125 " clip-rule="nonzero"/></clipPath><clipPath id="8c8bd47041"><path d="M 62.269531 -15.3125 L 239.617188 103.472656 L 128.75 268.996094 L -48.597656 150.210938 Z M 62.269531 -15.3125 " clip-rule="nonzero"/></clipPath><clipPath id="f682b82eb3"><path d="M 62.269531 -15.3125 L 239.617188 103.472656 L 128.75 268.996094 L -48.597656 150.210938 Z M 62.269531 -15.3125 " clip-rule="nonzero"/></clipPath><clipPath id="3a2143300a"><path d="M 94 22 L 120 22 L 120 82 L 94 82 Z M 94 22 " clip-rule="nonzero"/></clipPath><clipPath id="5453e19240"><path d="M 62.269531 -15.3125 L 239.617188 103.472656 L 128.75 268.996094 L -48.597656 150.210938 Z M 62.269531 -15.3125 " clip-rule="nonzero"/></clipPath><clipPath id="5dd195d391"><path d="M 62.269531 -15.3125 L 239.617188 103.472656 L 128.75 268.996094 L -48.597656 150.210938 Z M 62.269531 -15.3125 " clip-rule="nonzero"/></clipPath><clipPath id="b21dafe452"><path d="M 62.269531 -15.3125 L 239.617188 103.472656 L 128.75 268.996094 L -48.597656 150.210938 Z M 62.269531 -15.3125 " clip-rule="nonzero"/></clipPath><clipPath id="f9c497e8fc"><path d="M 88 15 L 104 15 L 104 83 L 88 83 Z M 88 15 " clip-rule="nonzero"/></clipPath><clipPath id="7458aa3c3f"><path d="M 62.269531 -15.3125 L 239.617188 103.472656 L 128.75 268.996094 L -48.597656 150.210938 Z M 62.269531 -15.3125 " clip-rule="nonzero"/></clipPath><clipPath id="2bc7b9b512"><path d="M 62.269531 -15.3125 L 239.617188 103.472656 L 128.75 268.996094 L -48.597656 150.210938 Z M 62.269531 -15.3125 " clip-rule="nonzero"/></clipPath><clipPath id="e0c3a3adc9"><path d="M 62.269531 -15.3125 L 239.617188 103.472656 L 128.75 268.996094 L -48.597656 150.210938 Z M 62.269531 -15.3125 " clip-rule="nonzero"/></clipPath><clipPath id="e8ef803294"><path d="M 77 11 L 100 11 L 100 82 L 77 82 Z M 77 11 " clip-rule="nonzero"/></clipPath><clipPath id="c704fa4f17"><path d="M 62.269531 -15.3125 L 239.617188 103.472656 L 128.75 268.996094 L -48.597656 150.210938 Z M 62.269531 -15.3125 " clip-rule="nonzero"/></clipPath><clipPath id="26d10ac313"><path d="M 62.269531 -15.3125 L 239.617188 103.472656 L 128.75 268.996094 L -48.597656 150.210938 Z M 62.269531 -15.3125 " clip-rule="nonzero"/></clipPath><clipPath id="3dc404b354"><path d="M 62.269531 -15.3125 L 239.617188 103.472656 L 128.75 268.996094 L -48.597656 150.210938 Z M 62.269531 -15.3125 " clip-rule="nonzero"/></clipPath><clipPath id="c970805a41"><path d="M 63 9 L 99 9 L 99 82 L 63 82 Z M 63 9 " clip-rule="nonzero"/></clipPath><clipPath id="2e7446331a"><path d="M 62.269531 -15.3125 L 239.617188 103.472656 L 128.75 268.996094 L -48.597656 150.210938 Z M 62.269531 -15.3125 " clip-rule="nonzero"/></clipPath><clipPath id="f10b66162e"><path d="M 62.269531 -15.3125 L 239.617188 103.472656 L 128.75 268.996094 L -48.597656 150.210938 Z M 62.269531 -15.3125 " clip-rule="nonzero"/></clipPath><clipPath id="871a0ce067"><path d="M 62.269531 -15.3125 L 239.617188 103.472656 L 128.75 268.996094 L -48.597656 150.210938 Z M 62.269531 -15.3125 " clip-rule="nonzero"/></clipPath><clipPath id="2dbddaf34f"><path d="M 45 20 L 99 20 L 99 83 L 45 83 Z M 45 20 " clip-rule="nonzero"/></clipPath><clipPath id="fc1fca0820"><path d="M 62.269531 -15.3125 L 239.617188 103.472656 L 128.75 268.996094 L -48.597656 150.210938 Z M 62.269531 -15.3125 " clip-rule="nonzero"/></clipPath><clipPath id="9ba62f48ac"><path d="M 62.269531 -15.3125 L 239.617188 103.472656 L 128.75 268.996094 L -48.597656 150.210938 Z M 62.269531 -15.3125 " clip-rule="nonzero"/></clipPath><clipPath id="afed321209"><path d="M 62.269531 -15.3125 L 239.617188 103.472656 L 128.75 268.996094 L -48.597656 150.210938 Z M 62.269531 -15.3125 " clip-rule="nonzero"/></clipPath><clipPath id="6cea55f06c"><path d="M 30 35 L 98 35 L 98 82 L 30 82 Z M 30 35 " clip-rule="nonzero"/></clipPath><clipPath id="0d2655d5f2"><path d="M 62.269531 -15.3125 L 239.617188 103.472656 L 128.75 268.996094 L -48.597656 150.210938 Z M 62.269531 -15.3125 " clip-rule="nonzero"/></clipPath><clipPath id="a73cbfa773"><path d="M 62.269531 -15.3125 L 239.617188 103.472656 L 128.75 268.996094 L -48.597656 150.210938 Z M 62.269531 -15.3125 " clip-rule="nonzero"/></clipPath><clipPath id="b9e5dfb239"><path d="M 62.269531 -15.3125 L 239.617188 103.472656 L 128.75 268.996094 L -48.597656 150.210938 Z M 62.269531 -15.3125 " clip-rule="nonzero"/></clipPath><clipPath id="b9ae1efd86"><path d="M 88 69 L 144 69 L 144 87 L 88 87 Z M 88 69 " clip-rule="nonzero"/></clipPath><clipPath id="0aa54a2bbb"><path d="M 62.269531 -15.3125 L 239.617188 103.472656 L 128.75 268.996094 L -48.597656 150.210938 Z M 62.269531 -15.3125 " clip-rule="nonzero"/></clipPath><clipPath id="3a3e619b7b"><path d="M 62.269531 -15.3125 L 239.617188 103.472656 L 128.75 268.996094 L -48.597656 150.210938 Z M 62.269531 -15.3125 " clip-rule="nonzero"/></clipPath><clipPath id="9d80245a47"><path d="M 62.269531 -15.3125 L 239.617188 103.472656 L 128.75 268.996094 L -48.597656 150.210938 Z M 62.269531 -15.3125 " clip-rule="nonzero"/></clipPath><clipPath id="b2914e2edd"><path d="M 83 67 L 147 67 L 147 87 L 83 87 Z M 83 67 " clip-rule="nonzero"/></clipPath><clipPath id="fca0ae2898"><path d="M 62.269531 -15.3125 L 239.617188 103.472656 L 128.75 268.996094 L -48.597656 150.210938 Z M 62.269531 -15.3125 " clip-rule="nonzero"/></clipPath><clipPath id="276eb74d15"><path d="M 62.269531 -15.3125 L 239.617188 103.472656 L 128.75 268.996094 L -48.597656 150.210938 Z M 62.269531 -15.3125 " clip-rule="nonzero"/></clipPath><clipPath id="f9ed73b6dc"><path d="M 62.269531 -15.3125 L 239.617188 103.472656 L 128.75 268.996094 L -48.597656 150.210938 Z M 62.269531 -15.3125 " clip-rule="nonzero"/></clipPath><clipPath id="65f6262eca"><path d="M 78 63 L 151 63 L 151 86 L 78 86 Z M 78 63 " clip-rule="nonzero"/></clipPath><clipPath id="072f37adc2"><path d="M 62.269531 -15.3125 L 239.617188 103.472656 L 128.75 268.996094 L -48.597656 150.210938 Z M 62.269531 -15.3125 " clip-rule="nonzero"/></clipPath><clipPath id="f46fa1aa3d"><path d="M 62.269531 -15.3125 L 239.617188 103.472656 L 128.75 268.996094 L -48.597656 150.210938 Z M 62.269531 -15.3125 " clip-rule="nonzero"/></clipPath><clipPath id="00f27214c1"><path d="M 62.269531 -15.3125 L 239.617188 103.472656 L 128.75 268.996094 L -48.597656 150.210938 Z M 62.269531 -15.3125 " clip-rule="nonzero"/></clipPath><clipPath id="9b8e8ba599"><path d="M 68 65 L 120 65 L 120 84 L 68 84 Z M 68 65 " clip-rule="nonzero"/></clipPath><clipPath id="dd958e58f7"><path d="M 62.269531 -15.3125 L 239.617188 103.472656 L 128.75 268.996094 L -48.597656 150.210938 Z M 62.269531 -15.3125 " clip-rule="nonzero"/></clipPath><clipPath id="7b2b60ad48"><path d="M 62.269531 -15.3125 L 239.617188 103.472656 L 128.75 268.996094 L -48.597656 150.210938 Z M 62.269531 -15.3125 " clip-rule="nonzero"/></clipPath><clipPath id="c95117dbee"><path d="M 62.269531 -15.3125 L 239.617188 103.472656 L 128.75 268.996094 L -48.597656 150.210938 Z M 62.269531 -15.3125 " clip-rule="nonzero"/></clipPath><clipPath id="e24fdc6493"><path d="M 86 69 L 113 69 L 113 80 L 86 80 Z M 86 69 " clip-rule="nonzero"/></clipPath><clipPath id="873426f49b"><path d="M 62.269531 -15.3125 L 239.617188 103.472656 L 128.75 268.996094 L -48.597656 150.210938 Z M 62.269531 -15.3125 " clip-rule="nonzero"/></clipPath><clipPath id="f900355f39"><path d="M 62.269531 -15.3125 L 239.617188 103.472656 L 128.75 268.996094 L -48.597656 150.210938 Z M 62.269531 -15.3125 " clip-rule="nonzero"/></clipPath><clipPath id="6f0426b9d1"><path d="M 62.269531 -15.3125 L 239.617188 103.472656 L 128.75 268.996094 L -48.597656 150.210938 Z M 62.269531 -15.3125 " clip-rule="nonzero"/></clipPath><clipPath id="146481e697"><path d="M 108 75 L 144 75 L 144 101 L 108 101 Z M 108 75 " clip-rule="nonzero"/></clipPath><clipPath id="7e0bb9945f"><path d="M 62.269531 -15.3125 L 239.617188 103.472656 L 128.75 268.996094 L -48.597656 150.210938 Z M 62.269531 -15.3125 " clip-rule="nonzero"/></clipPath><clipPath id="e6369ee4da"><path d="M 62.269531 -15.3125 L 239.617188 103.472656 L 128.75 268.996094 L -48.597656 150.210938 Z M 62.269531 -15.3125 " clip-rule="nonzero"/></clipPath><clipPath id="7a6a284ea1"><path d="M 62.269531 -15.3125 L 239.617188 103.472656 L 128.75 268.996094 L -48.597656 150.210938 Z M 62.269531 -15.3125 " clip-rule="nonzero"/></clipPath><clipPath id="a31f04cae5"><path d="M 142 61 L 174 61 L 174 86 L 142 86 Z M 142 61 " clip-rule="nonzero"/></clipPath><clipPath id="a71b119a41"><path d="M 62.269531 -15.3125 L 239.617188 103.472656 L 128.75 268.996094 L -48.597656 150.210938 Z M 62.269531 -15.3125 " clip-rule="nonzero"/></clipPath><clipPath id="e2e9f2eeeb"><path d="M 62.269531 -15.3125 L 239.617188 103.472656 L 128.75 268.996094 L -48.597656 150.210938 Z M 62.269531 -15.3125 " clip-rule="nonzero"/></clipPath><clipPath id="47cc394e46"><path d="M 62.269531 -15.3125 L 239.617188 103.472656 L 128.75 268.996094 L -48.597656 150.210938 Z M 62.269531 -15.3125 " clip-rule="nonzero"/></clipPath><clipPath id="d3d398f774"><path d="M 164 84 L 170 84 L 170 94 L 164 94 Z M 164 84 " clip-rule="nonzero"/></clipPath><clipPath id="232cad9854"><path d="M 62.269531 -15.3125 L 239.617188 103.472656 L 128.75 268.996094 L -48.597656 150.210938 Z M 62.269531 -15.3125 " clip-rule="nonzero"/></clipPath><clipPath id="0b310017a9"><path d="M 62.269531 -15.3125 L 239.617188 103.472656 L 128.75 268.996094 L -48.597656 150.210938 Z M 62.269531 -15.3125 " clip-rule="nonzero"/></clipPath><clipPath id="3be4d38aa1"><path d="M 62.269531 -15.3125 L 239.617188 103.472656 L 128.75 268.996094 L -48.597656 150.210938 Z M 62.269531 -15.3125 " clip-rule="nonzero"/></clipPath><clipPath id="c6660191c4"><path d="M 165 73 L 170 73 L 170 78 L 165 78 Z M 165 73 " clip-rule="nonzero"/></clipPath><clipPath id="c14a3fe7bf"><path d="M 62.269531 -15.3125 L 239.617188 103.472656 L 128.75 268.996094 L -48.597656 150.210938 Z M 62.269531 -15.3125 " clip-rule="nonzero"/></clipPath><clipPath id="c836fed987"><path d="M 62.269531 -15.3125 L 239.617188 103.472656 L 128.75 268.996094 L -48.597656 150.210938 Z M 62.269531 -15.3125 " clip-rule="nonzero"/></clipPath><clipPath id="44b82e77eb"><path d="M 62.269531 -15.3125 L 239.617188 103.472656 L 128.75 268.996094 L -48.597656 150.210938 Z M 62.269531 -15.3125 " clip-rule="nonzero"/></clipPath><clipPath id="4e83bf76f1"><path d="M 166 74 L 170 74 L 170 77 L 166 77 Z M 166 74 " clip-rule="nonzero"/></clipPath><clipPath id="2c02331034"><path d="M 62.269531 -15.3125 L 239.617188 103.472656 L 128.75 268.996094 L -48.597656 150.210938 Z M 62.269531 -15.3125 " clip-rule="nonzero"/></clipPath><clipPath id="7ccf7b78ca"><path d="M 62.269531 -15.3125 L 239.617188 103.472656 L 128.75 268.996094 L -48.597656 150.210938 Z M 62.269531 -15.3125 " clip-rule="nonzero"/></clipPath><clipPath id="ad653a2627"><path d="M 62.269531 -15.3125 L 239.617188 103.472656 L 128.75 268.996094 L -48.597656 150.210938 Z M 62.269531 -15.3125 " clip-rule="nonzero"/></clipPath><clipPath id="2123ea5580"><rect x="0" width="241" y="0" height="271"/></clipPath><clipPath id="d878f35aad"><path d="M 755.535156 316 L 955.507812 316 L 955.507812 515.207031 L 755.535156 515.207031 Z M 755.535156 316 " clip-rule="nonzero"/></clipPath><clipPath id="76463f183f"><path d="M 136 94 L 200.292969 94 L 200.292969 188 L 136 188 Z M 136 94 " clip-rule="nonzero"/></clipPath><clipPath id="89de936c22"><path d="M 0.652344 11 L 184 11 L 184 199.207031 L 0.652344 199.207031 Z M 0.652344 11 " clip-rule="nonzero"/></clipPath><clipPath id="994725ddfd"><path d="M 161 0.195312 L 185 0.195312 L 185 105 L 161 105 Z M 161 0.195312 " clip-rule="nonzero"/></clipPath><clipPath id="4f399aadeb"><rect x="0" width="201" y="0" height="200"/></clipPath></defs><g clip-path="url(#3d2ec79eec)"><path fill="#ffffff" d="M 0.460938 0 L 1023.539062 0 L 1023.539062 538.5 L 0.460938 538.5 Z M 0.460938 0 " fill-opacity="1" fill-rule="nonzero"/><path fill="#ffeb99" d="M 0.460938 0 L 1023.539062 0 L 1023.539062 538.5 L 0.460938 538.5 Z M 0.460938 0 " fill-opacity="1" fill-rule="nonzero"/></g><g clip-path="url(#47489bcf7d)"><g mask="url(#59dc3bcf2f)"><g transform="matrix(1, 0, 0, 1, 0.000000000000000056, 0.00000000000000433)"><g clip-path="url(#2123ea5580)"><g clip-path="url(#7fdc7fdb63)"><g clip-path="url(#6aaf91d6b7)"><g clip-path="url(#262adbef17)"><g clip-path="url(#eb4e40fe7a)"><path fill="#cccccc" d="M 53.464844 110.003906 C 46.164062 117.574219 40.035156 126.410156 36.75 136.460938 C 28.917969 160.277344 37.453125 184.132812 57.335938 199.042969 C 72.167969 209.933594 91.15625 214.535156 109.410156 213.664062 C 135.917969 212.589844 160.871094 198.859375 177.535156 178.414062 C 179.226562 176.367188 180.820312 174.304688 182.328125 172.132812 C 183.835938 169.960938 185.308594 167.761719 186.570312 165.480469 L 186.679688 165.554688 C 185.429688 167.898438 183.996094 170.117188 182.488281 172.292969 C 171.894531 187.472656 157.347656 200 140.277344 207.34375 C 113.605469 218.804688 80.554688 217.140625 56.613281 200.042969 C 25.019531 176.707031 25.515625 135.726562 53.464844 110.003906 Z M 53.464844 110.003906 " fill-opacity="1" fill-rule="nonzero"/></g></g></g></g><g clip-path="url(#b806c1aee9)"><g clip-path="url(#bf83fa888c)"><g clip-path="url(#2273dc4189)"><g clip-path="url(#b154647889)"><path fill="#cccccc" d="M 50.800781 109.703125 C 39.726562 121.484375 30.992188 136.265625 29.054688 152.46875 C 26.640625 173.816406 36.96875 194.042969 54.386719 206.296875 C 61.921875 211.765625 70.382812 215.84375 79.316406 218.429688 C 88.246094 221.019531 97.648438 221.800781 106.949219 221.613281 C 118.625 221.371094 130.277344 220.214844 141.726562 217.859375 C 144.023438 217.4375 146.347656 217.136719 148.683594 216.898438 C 153.328125 216.457031 158.046875 216.382812 162.707031 216.636719 L 162.707031 216.796875 C 158.046875 216.539062 153.378906 216.699219 148.707031 217.179688 C 146.371094 217.417969 144.085938 217.742188 141.785156 218.164062 C 130.363281 220.644531 118.671875 221.933594 106.984375 222.273438 C 79.0625 223.722656 49.132812 211.367188 34.683594 186.523438 C 27.605469 174.195312 25.605469 159.121094 29.140625 145.367188 C 31.457031 136.203125 35.949219 127.757812 41.464844 120.15625 C 44.246094 116.398438 47.320312 112.835938 50.714844 109.59375 Z M 50.800781 109.703125 " fill-opacity="1" fill-rule="nonzero"/></g></g></g></g><g clip-path="url(#7e7236248b)"><g clip-path="url(#89ae34b160)"><g clip-path="url(#e721aee8ab)"><g clip-path="url(#79ad3227fb)"><path fill="#cccccc" d="M 53.566406 107.789062 C 29.902344 131.398438 20.550781 168.25 46.296875 193.980469 C 55.007812 202.839844 65.726562 209.804688 77.613281 213.527344 C 96.722656 219.535156 117.480469 218.960938 136.601562 213.152344 C 150.914062 208.578125 163.714844 200.238281 177.992188 195.480469 C 168.988281 199.101562 159.589844 203.464844 150.679688 207.894531 C 146.179688 210.023438 141.589844 212.199219 136.78125 213.59375 C 131.964844 215.085938 127.109375 216.234375 122.15625 217.054688 C 109.742188 219.1875 97.042969 218.902344 84.722656 216.21875 C 72.34375 213.710938 60.730469 207.996094 51.113281 199.859375 C 43.324219 193.421875 36.496094 185.558594 32.96875 175.933594 C 29.40625 166.4375 28.71875 155.902344 30.886719 146.007812 C 33.097656 136.136719 37.589844 126.894531 43.546875 118.792969 C 46.558594 114.765625 49.878906 110.996094 53.589844 107.59375 Z M 53.566406 107.789062 " fill-opacity="1" fill-rule="nonzero"/></g></g></g></g><g clip-path="url(#408600501f)"><g clip-path="url(#9b264af51a)"><g clip-path="url(#fb87165768)"><g clip-path="url(#ebf0728ce8)"><path fill="#000000" d="M 84.972656 89.578125 C 43.441406 77.992188 17.148438 121.050781 19.3125 157.824219 C 19.722656 167.273438 22.492188 176.445312 26.703125 184.890625 C 34.339844 200.664062 47.601562 213.417969 64.730469 218.105469 C 70.265625 219.742188 76.058594 220.757812 81.804688 220.894531 C 81.804688 220.894531 83.945312 220.949219 83.945312 220.949219 L 86.121094 220.867188 C 87.390625 220.871094 89.152344 220.617188 90.4375 220.523438 C 96.195312 219.765625 101.761719 218.03125 107.304688 216.335938 C 115.683594 213.886719 123.660156 210.214844 132.171875 208.117188 C 137.882812 206.800781 143.691406 206.128906 149.511719 206.15625 L 149.5 206.253906 C 143.703125 206.347656 137.882812 207.117188 132.246094 208.484375 C 126.605469 209.855469 121.222656 212.1875 115.765625 214.15625 C 110.25 216.132812 104.734375 217.953125 99.105469 219.542969 C 95.621094 220.546875 91.949219 221.273438 88.332031 221.605469 C 87.121094 221.75 85.191406 221.78125 83.929688 221.839844 C 77.351562 221.835938 70.71875 220.890625 64.402344 218.996094 C 46.964844 214.210938 33.664062 201.273438 25.984375 185.253906 C 23.414062 179.980469 21.371094 174.476562 20.050781 168.765625 C 19.164062 164.460938 18.648438 160.082031 18.546875 155.71875 C 17.628906 119.304688 44.359375 77.652344 84.972656 89.578125 Z M 84.972656 89.578125 " fill-opacity="1" fill-rule="nonzero"/></g></g></g></g><g clip-path="url(#31929b1948)"><g clip-path="url(#2c04c3e873)"><g clip-path="url(#7ddcf9cb9d)"><g clip-path="url(#89dd78b50d)"><path fill="#000000" d="M 86.652344 86.039062 C 72.238281 81.421875 56.0625 82.679688 42.671875 89.675781 C 29.320312 96.695312 18.785156 108.785156 12.828125 122.507812 C 8.347656 132.921875 7.332031 144.65625 9.929688 155.671875 C 12.339844 166.570312 17.695312 177.425781 27.207031 183.742188 C 32.75 187.347656 41.617188 192.015625 47.894531 187.945312 C 50.90625 185.828125 52.480469 182.054688 52.425781 178.410156 C 52.484375 172.777344 47.851562 167.972656 42.523438 166.738281 C 36.804688 165.296875 31.492188 169.109375 30.246094 174.691406 C 29.40625 178.320312 30.84375 182.039062 32.839844 185.074219 C 39.472656 194.820312 50.34375 199.183594 61.945312 198.417969 C 69.492188 198.007812 76.828125 195.765625 84.335938 195.011719 C 91.929688 194.210938 99.617188 195.488281 106.824219 197.71875 C 121.316406 202.066406 134.476562 211.414062 142.640625 224.253906 C 142.640625 224.253906 142.554688 224.300781 142.554688 224.300781 C 134.269531 211.644531 121.09375 202.554688 106.679688 198.253906 C 99.480469 196.085938 91.941406 194.90625 84.410156 195.695312 C 76.914062 196.511719 69.585938 198.816406 62.019531 199.261719 C 54.390625 199.71875 46.457031 198.171875 40.195312 193.660156 C 34.398438 189.40625 27.835938 182.25 29.4375 174.46875 C 30.300781 170.644531 33.15625 167.253906 36.925781 166.066406 C 40.730469 164.902344 44.871094 166.085938 47.996094 168.390625 C 51.121094 170.695312 53.289062 174.429688 53.246094 178.375 C 53.25 182.25 51.589844 186.230469 48.324219 188.496094 C 41.738281 192.785156 32.664062 188.03125 26.863281 184.253906 C 17.207031 177.839844 11.789062 166.835938 9.402344 155.746094 C 6.820312 144.628906 7.894531 132.726562 12.4375 122.300781 C 18.503906 108.488281 29.164062 96.378906 42.589844 89.40625 C 55.925781 82.484375 72.53125 81.140625 86.652344 86.039062 Z M 86.652344 86.039062 " fill-opacity="1" fill-rule="nonzero"/></g></g></g></g><g clip-path="url(#d605abb022)"><g clip-path="url(#97386ac7ff)"><g clip-path="url(#8f1187ac9e)"><g clip-path="url(#627a535609)"><path fill="#ffdf35" d="M 71.785156 99.679688 C 54.601562 103.710938 40.835938 116.660156 34.640625 133.035156 C 30.378906 144.074219 30.296875 155.367188 35.847656 165.929688 C 40.609375 175.535156 48.234375 183.402344 59.480469 183.878906 C 63.015625 184.230469 66.609375 184.09375 70.070312 183.28125 C 72.871094 182.664062 75.523438 181.472656 78.230469 180.367188 L 78.375 180.625 C 75.890625 182.195312 73.296875 183.691406 70.46875 184.664062 C 66.226562 186.167969 61.617188 186.476562 57.105469 186.160156 C 52.484375 185.929688 47.953125 184.21875 44.203125 181.496094 C 37.40625 176.519531 33.117188 168.820312 30.722656 160.90625 C 27.761719 151.546875 29.074219 141.1875 32.808594 132.285156 C 39.394531 115.800781 54.238281 102.671875 71.726562 99.375 C 71.726562 99.375 71.785156 99.679688 71.785156 99.679688 Z M 71.785156 99.679688 " fill-opacity="1" fill-rule="nonzero"/></g></g></g></g><g clip-path="url(#6d62ba8615)"><g clip-path="url(#9ee451a21d)"><g clip-path="url(#326fd1c0da)"><g clip-path="url(#172ce2ec78)"><path fill="#ffdf35" d="M 71.820312 100.816406 C 55.210938 105.65625 41.9375 121.109375 40.511719 138.449219 C 40.109375 143.328125 40.699219 148.230469 42.132812 152.902344 C 45.628906 165.746094 55.910156 172.257812 68.980469 170.882812 C 73.8125 170.40625 78.546875 168.804688 82.964844 166.40625 L 83.109375 166.664062 C 79.167969 169.859375 74.40625 172.132812 69.28125 173.050781 C 61.542969 174.546875 52.839844 172.960938 46.972656 167.386719 C 41.980469 162.875 39.839844 156.246094 38.632812 149.8125 C 37.058594 140.910156 38.53125 131.503906 42.800781 123.542969 C 48.703125 112.277344 59.40625 103.429688 71.722656 100.488281 C 71.734375 100.550781 71.820312 100.816406 71.820312 100.816406 Z M 71.820312 100.816406 " fill-opacity="1" fill-rule="nonzero"/></g></g></g></g><g clip-path="url(#9a96227450)"><g clip-path="url(#d821daf2f5)"><g clip-path="url(#7a0156f80d)"><g clip-path="url(#859a53e1f8)"><path fill="#ffdf35" d="M 72.269531 101.808594 C 64.195312 105.308594 56.945312 111.0625 52.261719 118.53125 C 47.738281 125.84375 45.054688 134.757812 46.285156 143.378906 C 47.089844 149.699219 50.722656 155.367188 56.035156 158.765625 C 65.324219 164.617188 77.160156 163.421875 87.339844 160.269531 C 87.339844 160.269531 87.460938 160.5625 87.460938 160.5625 C 79.445312 164.847656 69.820312 166.78125 60.828125 164.363281 C 45.457031 160.058594 40.84375 144.136719 45.257812 130.015625 C 47.746094 121.234375 53.152344 113.398438 60.4375 107.992188 C 64.023438 105.25 68.011719 103.09375 72.210938 101.503906 Z M 72.269531 101.808594 " fill-opacity="1" fill-rule="nonzero"/></g></g></g></g><g clip-path="url(#9917b81af2)"><g clip-path="url(#898e838148)"><g clip-path="url(#e5fef2ef78)"><g clip-path="url(#a31033947e)"><path fill="#ffdf35" d="M 72.09375 97.714844 C 54.3125 101.925781 38.054688 113.683594 30.492188 130.519531 C 24.179688 144.378906 22.472656 159.992188 29.257812 174.03125 C 31.167969 178.066406 33.738281 181.753906 36.714844 185.070312 C 43.667969 193.230469 54.050781 197.214844 64.785156 196.714844 C 64.785156 196.714844 64.808594 196.996094 64.808594 196.996094 C 58.648438 198.117188 52.132812 197.625 46.28125 195.191406 C 37.679688 191.710938 30.3125 183.699219 26.320312 175.402344 C 16.96875 155.457031 24.464844 129.613281 39.519531 114.503906 C 48.328125 105.710938 59.855469 99.910156 71.972656 97.421875 C 72.035156 97.410156 72.09375 97.714844 72.09375 97.714844 Z M 72.09375 97.714844 " fill-opacity="1" fill-rule="nonzero"/></g></g></g></g><g clip-path="url(#f9764b0c65)"><g clip-path="url(#7bf5b2dc6a)"><g clip-path="url(#7d59f9fd77)"><g clip-path="url(#900d3f76b2)"><path fill="#ffdf35" d="M 72.796875 95.636719 C 53.789062 99.773438 37.078125 111.96875 26.972656 128.480469 C 23.566406 133.886719 20.839844 139.699219 19.042969 145.867188 C 17.640625 150.496094 16.933594 155.117188 17.082031 159.882812 C 17.582031 173.953125 21.585938 188.726562 32.875 197.933594 C 35.28125 199.96875 37.929688 201.796875 40.738281 203.304688 C 42.191406 204.066406 43.597656 204.902344 44.976562 205.773438 C 46.101562 206.472656 47.90625 207.734375 49.078125 208.363281 C 49.078125 208.363281 48.945312 208.640625 48.945312 208.640625 C 47.40625 208.089844 45.976562 207.289062 44.472656 206.601562 C 41.542969 205.117188 38.453125 204.105469 35.582031 202.449219 C 31.246094 199.972656 27.304688 196.746094 24.121094 192.863281 C 15.644531 182.625 13.523438 167.894531 14.488281 154.964844 C 17.613281 132.714844 34.0625 111.324219 54.140625 101.546875 C 59.992188 98.675781 66.253906 96.613281 72.613281 95.355469 Z M 72.796875 95.636719 " fill-opacity="1" fill-rule="nonzero"/></g></g></g></g><g clip-path="url(#2bcca90f27)"><g clip-path="url(#f7d980b054)"><g clip-path="url(#edde051bdf)"><g clip-path="url(#9d990f9d54)"><path fill="#cccccc" d="M 50.976562 113.320312 C 34.53125 132.960938 31.539062 157.472656 44.769531 179.699219 C 67.105469 217.09375 117.292969 215.917969 150.585938 194.410156 C 168.554688 182.953125 181.976562 164.578125 187.46875 144.019531 C 187.46875 144.019531 187.601562 144.054688 187.601562 144.054688 C 186.273438 149.210938 184.417969 154.28125 182.132812 159.113281 C 170.8125 183.617188 147.660156 201.46875 121.609375 207.726562 C 100.914062 212.957031 77.410156 211.214844 59.796875 198.304688 C 42.425781 185.660156 32.003906 162.875 36.363281 141.558594 C 38.398438 130.988281 43.75 121.261719 50.902344 113.273438 C 50.867188 113.246094 50.976562 113.320312 50.976562 113.320312 Z M 50.976562 113.320312 " fill-opacity="1" fill-rule="nonzero"/></g></g></g></g><g clip-path="url(#4e1b625b55)"><g clip-path="url(#8a1bea9eed)"><g clip-path="url(#bd3ff5f5d2)"><g clip-path="url(#c661879aa6)"><path fill="#cccccc" d="M 53.082031 105.820312 C 45.414062 113.46875 38.894531 122.253906 34.082031 131.96875 C 30.609375 138.660156 27.964844 145.851562 26.863281 153.28125 C 25.726562 160.6875 26.261719 168.363281 28.289062 175.554688 C 31.03125 185.082031 36.40625 194.089844 43.164062 200.953125 C 51.132812 208.78125 60.703125 215.085938 71.160156 219.121094 C 78.550781 221.949219 86.421875 223.507812 94.207031 224.796875 C 101.378906 226.050781 109.375 225.996094 116.558594 227.148438 C 121.058594 227.882812 125.554688 228.613281 129.953125 229.96875 C 136.515625 231.976562 142.65625 235.242188 147.917969 239.667969 C 147.917969 239.667969 147.84375 239.777344 147.84375 239.777344 C 144.316406 236.882812 140.410156 234.480469 136.269531 232.660156 C 132.117188 230.78125 127.742188 229.546875 123.230469 228.753906 C 118.757812 227.984375 114.25 227.191406 109.738281 226.875 C 105.621094 226.609375 100.09375 226.304688 96.109375 225.757812 C 90.332031 224.960938 84.230469 223.847656 78.539062 222.367188 C 68.886719 219.824219 59.714844 215.378906 51.65625 209.503906 C 47.652344 206.609375 43.746094 203.25 40.390625 199.625 C 28.316406 186.128906 22.128906 167.875 26.222656 149.882812 C 29.898438 133.621094 40.714844 116.523438 53.082031 105.820312 Z M 53.082031 105.820312 " fill-opacity="1" fill-rule="nonzero"/></g></g></g></g><g clip-path="url(#a28be18794)"><g clip-path="url(#9ae5842cde)"><g clip-path="url(#c4c8d4426c)"><g clip-path="url(#83065dda7f)"><path fill="#b46500" d="M 99.265625 93.269531 C 80.578125 99.152344 61.410156 92.519531 49.433594 77.125 C 42.277344 67.929688 37.699219 58.128906 37.355469 46.285156 C 37.039062 38.753906 38.253906 31.082031 41.164062 24.121094 C 41.164062 24.121094 41.824219 24.246094 41.824219 24.246094 C 41.941406 33.179688 42.363281 41.738281 44.363281 50.394531 C 46.085938 57.648438 48.296875 64.804688 52.0625 71.300781 C 57.984375 81.472656 67.941406 89.417969 79.453125 92.195312 C 85.867188 93.785156 92.605469 93.789062 99.132812 92.597656 C 99.109375 92.632812 99.265625 93.269531 99.265625 93.269531 Z M 99.265625 93.269531 " fill-opacity="1" fill-rule="nonzero"/></g></g></g></g><g clip-path="url(#b800c4975f)"><g clip-path="url(#8069ab6b6e)"><g clip-path="url(#e67468f59e)"><g clip-path="url(#6e6cba9c1c)"><path fill="#b46500" d="M 102.113281 94.167969 C 93.257812 96.140625 84.171875 97.585938 75.078125 96.902344 C 61.167969 95.804688 47.425781 91.691406 36.023438 83.363281 C 28.269531 77.746094 22.8125 68.789062 21.230469 59.347656 C 20.457031 54.640625 20.5625 49.886719 21.609375 45.390625 C 21.609375 45.390625 22.28125 45.417969 22.28125 45.417969 C 23.867188 54.0625 26.710938 62.171875 31.832031 69.101562 C 39.722656 79.902344 49.867188 86.699219 62.648438 90.589844 C 71.027344 93.285156 79.765625 94.738281 88.640625 94.476562 C 93.105469 94.390625 97.53125 93.960938 102.019531 93.519531 Z M 102.113281 94.167969 " fill-opacity="1" fill-rule="nonzero"/></g></g></g></g><g clip-path="url(#f54c97e4cc)"><g clip-path="url(#3741aec3ab)"><g clip-path="url(#98d3495640)"><g clip-path="url(#8861ef5cac)"><path fill="#b46500" d="M 101.183594 95.082031 C 89.367188 97.667969 77.445312 100.660156 65.253906 100.558594 C 53.910156 100.542969 41.910156 98.816406 32.082031 92.65625 C 30.847656 91.882812 29.371094 90.839844 28.210938 89.957031 C 25.207031 87.628906 22.660156 84.703125 20.660156 81.507812 C 18.394531 77.921875 16.75 73.957031 16.0625 69.835938 C 16.0625 69.835938 16.671875 69.554688 16.671875 69.554688 C 21.367188 75.617188 26.601562 81.351562 33.21875 85.253906 C 38.03125 88.210938 42.9375 91.179688 48.300781 93.074219 C 53.824219 94.96875 59.53125 95.714844 65.410156 96.207031 C 69.261719 96.558594 73.320312 96.679688 77.195312 96.515625 C 85.179688 96.242188 93.128906 95.148438 101.085938 94.433594 C 101.085938 94.433594 101.183594 95.082031 101.183594 95.082031 Z M 101.183594 95.082031 " fill-opacity="1" fill-rule="nonzero"/></g></g></g></g><g clip-path="url(#25f4dd5395)"><g clip-path="url(#9d07da5f2e)"><g clip-path="url(#0dc04ab029)"><g clip-path="url(#bf102aed52)"><path fill="#b46500" d="M 101.207031 95.046875 C 93.953125 97.398438 87.015625 100.390625 79.421875 101.828125 C 71.886719 103.25 64.476562 104.652344 56.859375 105.328125 C 50.613281 105.863281 44.09375 106.324219 37.851562 105.273438 C 28.722656 103.613281 19.792969 99.59375 13.082031 93.136719 C 13.082031 93.136719 13.414062 92.5625 13.414062 92.5625 C 14.355469 92.824219 15.234375 93.09375 16.175781 93.351562 C 18.800781 94.105469 21.671875 94.964844 24.273438 95.597656 C 31.375 97.433594 38.4375 98.453125 45.625 99.449219 C 49.21875 99.945312 52.886719 100.175781 56.589844 100.109375 C 63.996094 99.980469 71.554688 99.3125 78.988281 98.671875 C 86.445312 97.992188 93.664062 95.773438 101.050781 94.410156 C 101.050781 94.410156 101.207031 95.046875 101.207031 95.046875 Z M 101.207031 95.046875 " fill-opacity="1" fill-rule="nonzero"/></g></g></g></g><g clip-path="url(#8f75e8b586)"><g clip-path="url(#77236a2fba)"><g clip-path="url(#6f9d851615)"><g clip-path="url(#035220e001)"><path fill="#b46500" d="M 98.199219 94.78125 C 94.800781 96.375 91.617188 98.433594 88.3125 100.199219 C 85.523438 101.828125 81.007812 103.738281 77.996094 105.0625 C 71.011719 108.125 63.804688 110.882812 56.355469 112.734375 C 48.847656 114.601562 41.117188 116.316406 33.34375 115.882812 C 27.464844 115.710938 21.558594 114.78125 16.148438 112.480469 C 14.339844 111.695312 12.582031 110.835938 10.972656 109.753906 C 10.972656 109.753906 11.167969 109.144531 11.167969 109.144531 C 17.339844 109.511719 23.074219 109.746094 29.136719 109.40625 C 34.175781 109.015625 39.285156 108.992188 44.273438 108.832031 C 55.410156 108.441406 66.113281 105.535156 76.84375 102.113281 C 76.84375 102.113281 82.222656 100.414062 82.222656 100.414062 C 85.773438 99.238281 89.222656 97.730469 92.648438 96.257812 C 94.410156 95.53125 96.136719 94.777344 97.996094 94.21875 C 97.980469 94.15625 98.199219 94.78125 98.199219 94.78125 Z M 98.199219 94.78125 " fill-opacity="1" fill-rule="nonzero"/></g></g></g></g><g clip-path="url(#cffa7bdc9a)"><g clip-path="url(#db7147a6d1)"><g clip-path="url(#1db328d02a)"><g clip-path="url(#9bb9798486)"><path fill="#b46500" d="M 99.078125 95.371094 C 96.535156 96.636719 94.464844 98.695312 91.882812 99.9375 C 85.972656 102.820312 80.585938 106.582031 75.285156 110.457031 C 68.269531 115.625 60.632812 119.894531 52.65625 123.410156 C 49.179688 124.953125 45.535156 126.59375 41.816406 127.550781 C 34.171875 129.539062 25.710938 130.128906 18.273438 127.054688 C 17.367188 126.664062 16.464844 126.269531 15.597656 125.742188 C 15.597656 125.742188 15.757812 125.105469 15.757812 125.105469 C 19.449219 125.140625 23.226562 124.964844 26.824219 124.351562 C 33.011719 123.351562 41.734375 120.390625 47.800781 118.617188 C 54.980469 116.691406 61.792969 113.726562 68.367188 110.171875 C 71.707031 108.433594 74.890625 106.375 78.21875 104.574219 C 81.570312 102.734375 85.011719 101.007812 88.605469 99.597656 C 90.40625 98.894531 92.117188 98.398438 93.769531 97.4375 C 95.472656 96.558594 97.027344 95.425781 98.875 94.808594 C 98.859375 94.746094 99.078125 95.371094 99.078125 95.371094 Z M 99.078125 95.371094 " fill-opacity="1" fill-rule="nonzero"/></g></g></g></g><g clip-path="url(#bb9e068467)"><g clip-path="url(#08e4355cee)"><g clip-path="url(#39a2130e8e)"><g clip-path="url(#b82e3a07e2)"><path fill="#b46500" d="M 99.105469 95.332031 C 96.105469 97.195312 93.558594 99.734375 90.667969 101.828125 C 84.890625 105.859375 79.625 110.554688 74.894531 115.710938 C 72.566406 118.238281 70.191406 121.152344 67.9375 123.726562 C 63.160156 129.117188 58.269531 134.910156 51.992188 138.660156 C 45.832031 142.703125 38.617188 145.402344 31.253906 145.933594 C 31.253906 145.933594 31.035156 145.308594 31.035156 145.308594 C 36.25 141.800781 41.292969 138.710938 46.117188 134.835938 C 52.140625 129.960938 58.667969 125.527344 64.226562 120.074219 C 65.160156 119.160156 67.082031 117.320312 68.011719 116.40625 C 71.859375 112.5625 76.082031 109.03125 80.515625 105.898438 C 84.871094 102.71875 89.730469 100.457031 94.210938 97.414062 C 95.765625 96.4375 97.222656 95.453125 98.886719 94.710938 C 98.824219 94.722656 99.105469 95.332031 99.105469 95.332031 Z M 99.105469 95.332031 " fill-opacity="1" fill-rule="nonzero"/></g></g></g></g><g clip-path="url(#82fd7bfd58)"><g clip-path="url(#031e5fc1fa)"><g clip-path="url(#2c38535cbc)"><g clip-path="url(#984503aa59)"><path fill="#ffdf35" d="M 137.097656 76.710938 C 131.835938 87.1875 122.492188 94.082031 111.507812 97.808594 C 100.558594 101.398438 88.019531 100.476562 77.90625 94.820312 C 71.289062 91.074219 65.359375 85.988281 61.089844 79.683594 C 61.089844 79.683594 61.359375 79.441406 61.359375 79.441406 C 67.878906 85.078125 74.875 89.765625 82.605469 93.035156 C 87.34375 94.988281 92.328125 96.578125 97.449219 96.929688 C 108.246094 97.691406 119.292969 93.632812 127.824219 86.992188 C 131.339844 84.042969 134.355469 80.492188 136.78125 76.550781 C 136.804688 76.515625 137.097656 76.710938 137.097656 76.710938 Z M 137.097656 76.710938 " fill-opacity="1" fill-rule="nonzero"/></g></g></g></g><g clip-path="url(#9fa7e891e3)"><g clip-path="url(#53f57dc40c)"><g clip-path="url(#fd931a8289)"><g clip-path="url(#a7ccfc94c1)"><path fill="#ffdf35" d="M 130.0625 81.117188 C 120.269531 92.804688 104.847656 97.535156 90.074219 93.6875 C 78.539062 91.105469 69.527344 85.707031 62.34375 76.226562 C 60.113281 73.300781 58.210938 70.117188 56.8125 66.742188 C 56.8125 66.742188 57.09375 66.558594 57.09375 66.558594 C 61.496094 72.105469 66.5 77.3125 72.1875 81.496094 C 86.285156 92.210938 105.300781 97.097656 121.34375 87.480469 C 124.417969 85.664062 127.246094 83.421875 129.757812 80.863281 C 129.828125 80.910156 130.0625 81.117188 130.0625 81.117188 Z M 130.0625 81.117188 " fill-opacity="1" fill-rule="nonzero"/></g></g></g></g><g clip-path="url(#5b6071708b)"><g clip-path="url(#a45f05d440)"><g clip-path="url(#df7490165a)"><g clip-path="url(#db489aebd0)"><path fill="#ffdf35" d="M 125.207031 81.472656 C 117.640625 88.019531 107.253906 91.246094 97.34375 89.488281 C 91.378906 88.570312 85.75 85.964844 80.558594 83.175781 C 69.578125 77.625 60.707031 69.5625 54.640625 58.816406 C 52.65625 55.363281 50.988281 51.753906 49.757812 47.964844 C 49.757812 47.964844 50.078125 47.804688 50.078125 47.804688 C 54.257812 54.316406 58.816406 60.660156 64.210938 66.234375 C 69.492188 71.734375 75.3125 76.90625 81.945312 80.710938 C 87.746094 84.171875 93.851562 87.09375 100.5625 87.929688 C 109.238281 89.074219 118.046875 86.382812 125.023438 81.191406 C 124.964844 81.203125 125.207031 81.472656 125.207031 81.472656 Z M 125.207031 81.472656 " fill-opacity="1" fill-rule="nonzero"/></g></g></g></g><g clip-path="url(#17b4b0fc00)"><g clip-path="url(#652c2f6563)"><g clip-path="url(#8c8bd47041)"><g clip-path="url(#f682b82eb3)"><path fill="#b46500" d="M 99.535156 80.667969 C 98.667969 75.3125 98.847656 69.8125 99.777344 64.386719 C 100.742188 58.988281 102.070312 53.515625 104.574219 48.507812 C 108.675781 40.011719 114.359375 34.21875 123.886719 32.273438 C 126.699219 31.71875 129.632812 31.617188 132.394531 32.246094 C 132.394531 32.246094 132.492188 32.894531 132.492188 32.894531 C 127.753906 35.289062 123.421875 37.640625 119.457031 40.867188 C 115.746094 43.953125 111.863281 46.972656 109.191406 51.125 C 106.417969 55.417969 104.589844 60.292969 102.953125 65.1875 C 101.292969 70.125 100.316406 75.304688 100.160156 80.609375 Z M 99.535156 80.667969 " fill-opacity="1" fill-rule="nonzero"/></g></g></g></g><g clip-path="url(#3a2143300a)"><g clip-path="url(#5453e19240)"><g clip-path="url(#5dd195d391)"><g clip-path="url(#b21dafe452)"><path fill="#b46500" d="M 99.484375 81.695312 C 95.734375 73.984375 94.40625 65.195312 94.730469 56.550781 C 95.085938 50.636719 96.625 44.773438 99.007812 39.316406 C 101.449219 33.847656 105.824219 29.296875 110.855469 26.144531 C 113.375 24.597656 116.078125 23.332031 119.003906 22.691406 L 119.367188 23.253906 C 115.765625 27.523438 112.226562 31.464844 109.148438 35.980469 C 106.253906 40.300781 103.007812 44.433594 101.152344 49.34375 C 99.257812 54.386719 98.527344 59.679688 98.296875 65.09375 C 98.003906 70.519531 98.652344 76.046875 100.097656 81.414062 C 100.074219 81.449219 99.484375 81.695312 99.484375 81.695312 Z M 99.484375 81.695312 " fill-opacity="1" fill-rule="nonzero"/></g></g></g></g><g clip-path="url(#f9c497e8fc)"><g clip-path="url(#7458aa3c3f)"><g clip-path="url(#2bc7b9b512)"><g clip-path="url(#e0c3a3adc9)"><path fill="#b46500" d="M 98.777344 82.121094 C 93.292969 73.195312 90.121094 62.800781 89.164062 52.347656 C 87.953125 40.453125 87.898438 31.027344 95.742188 21.21875 C 97.738281 18.792969 99.980469 16.632812 102.648438 15.027344 C 102.648438 15.027344 103.148438 15.46875 103.148438 15.46875 C 100.851562 20.875 98.652344 25.980469 97.175781 31.515625 C 96.460938 34.164062 95.832031 36.765625 95.191406 39.464844 C 94.035156 44.207031 93.902344 49.316406 94.050781 54.242188 C 94.09375 57.824219 94.328125 61.429688 94.875 64.972656 C 95.71875 70.683594 97.246094 76.324219 99.414062 81.804688 C 99.386719 81.839844 98.777344 82.121094 98.777344 82.121094 Z M 98.777344 82.121094 " fill-opacity="1" fill-rule="nonzero"/></g></g></g></g><g clip-path="url(#e8ef803294)"><g clip-path="url(#c704fa4f17)"><g clip-path="url(#26d10ac313)"><g clip-path="url(#3dc404b354)"><path fill="#b46500" d="M 98.972656 81.828125 C 90.066406 72.785156 82.996094 61.316406 79.84375 48.914062 C 76.992188 38.519531 76.445312 30.144531 80.609375 19.886719 C 81.851562 16.847656 83.445312 13.992188 85.539062 11.417969 L 86.164062 11.675781 C 85.527344 17.929688 84.734375 23.871094 84.585938 30.03125 C 84.5 36.019531 84.074219 41.882812 85.066406 47.851562 C 87.023438 59.980469 92.414062 71.335938 99.523438 81.402344 C 99.460938 81.414062 98.972656 81.828125 98.972656 81.828125 Z M 98.972656 81.828125 " fill-opacity="1" fill-rule="nonzero"/></g></g></g></g><g clip-path="url(#c970805a41)"><g clip-path="url(#2e7446331a)"><g clip-path="url(#f10b66162e)"><g clip-path="url(#871a0ce067)"><path fill="#b46500" d="M 98.484375 81.925781 C 92.804688 77.960938 87.621094 73.269531 82.921875 68.160156 C 78.164062 63.066406 73.761719 57.359375 70.574219 51.03125 C 64.957031 40.640625 62.308594 31.921875 64.140625 19.996094 C 64.710938 16.453125 65.648438 12.996094 67.167969 9.773438 C 67.167969 9.773438 67.828125 9.894531 67.828125 9.894531 C 68.175781 13.417969 68.402344 16.800781 68.835938 20.117188 C 69.53125 26.679688 70.839844 32.96875 72.332031 39.375 C 74.550781 49.132812 79.375 57.933594 85.457031 66.039062 C 89.40625 71.550781 93.945312 76.65625 98.886719 81.398438 C 98.886719 81.398438 98.484375 81.925781 98.484375 81.925781 Z M 98.484375 81.925781 " fill-opacity="1" fill-rule="nonzero"/></g></g></g></g><g clip-path="url(#2dbddaf34f)"><g clip-path="url(#fc1fca0820)"><g clip-path="url(#9ba62f48ac)"><g clip-path="url(#afed321209)"><path fill="#b46500" d="M 97.96875 82.851562 C 93.570312 80.226562 89.226562 77.367188 85.050781 74.410156 C 80.910156 71.480469 76.492188 68.414062 72.574219 65.152344 C 64.652344 58.363281 57.46875 50.15625 52.757812 40.796875 C 51.234375 37.761719 49.699219 34.503906 48.53125 31.335938 C 47.316406 28.082031 46.273438 24.730469 45.617188 21.269531 C 45.617188 21.269531 46.230469 20.992188 46.230469 20.992188 C 50.253906 25.597656 53.597656 30.433594 57.082031 35.367188 C 59.484375 38.832031 61.714844 42.550781 63.699219 46.164062 C 66.828125 52.023438 70.914062 57.253906 75.589844 61.921875 C 81.566406 67.886719 88.046875 73.503906 94.417969 79.042969 C 95.6875 80.15625 97.015625 81.261719 98.371094 82.328125 C 98.335938 82.300781 97.96875 82.851562 97.96875 82.851562 Z M 97.96875 82.851562 " fill-opacity="1" fill-rule="nonzero"/></g></g></g></g><g clip-path="url(#6cea55f06c)"><g clip-path="url(#0d2655d5f2)"><g clip-path="url(#a73cbfa773)"><g clip-path="url(#b9e5dfb239)"><path fill="#b46500" d="M 97.542969 81.664062 C 92.753906 79.785156 87.683594 78.71875 83.015625 76.496094 C 73.980469 72.085938 63.816406 67.613281 55.539062 61.910156 C 50.449219 58.5 46.042969 54.226562 42.128906 49.691406 C 39.324219 46.59375 36.332031 43.691406 33.429688 40.578125 C 32.246094 39.253906 31.0625 37.933594 30.074219 36.476562 C 30.074219 36.476562 30.515625 35.976562 30.515625 35.976562 C 30.933594 36.148438 31.324219 36.355469 31.703125 36.503906 C 34.460938 37.769531 37.222656 39.035156 39.847656 40.582031 C 45.855469 43.96875 51.003906 48.957031 55.605469 53.894531 C 60.082031 58.855469 65.585938 62.4375 71.242188 65.957031 C 71.242188 65.957031 79.933594 71.355469 79.933594 71.355469 C 82.375 72.9375 85.976562 75.246094 88.640625 76.5 C 91.679688 78.058594 94.882812 79.300781 97.835938 81.066406 C 97.847656 81.128906 97.542969 81.664062 97.542969 81.664062 Z M 97.542969 81.664062 " fill-opacity="1" fill-rule="nonzero"/></g></g></g></g><g clip-path="url(#b9ae1efd86)"><g clip-path="url(#0aa54a2bbb)"><g clip-path="url(#3a3e619b7b)"><g clip-path="url(#9d80245a47)"><path fill="#ffdf35" d="M 143.605469 70.089844 C 132.808594 71.078125 122.179688 73.398438 112.039062 77.054688 C 106.839844 79.035156 100.476562 81.5625 95.324219 83.628906 C 93.125 84.539062 90.894531 85.488281 88.621094 86.351562 L 88.523438 86.179688 C 96.40625 80.429688 105.535156 76.625 114.929688 74.164062 C 124.261719 71.558594 133.933594 70.03125 143.617188 69.832031 Z M 143.605469 70.089844 " fill-opacity="1" fill-rule="nonzero"/></g></g></g></g><g clip-path="url(#b2914e2edd)"><g clip-path="url(#fca0ae2898)"><g clip-path="url(#276eb74d15)"><g clip-path="url(#f9ed73b6dc)"><path fill="#ffdf35" d="M 146.503906 68.054688 C 135.296875 67.917969 124.128906 69.457031 113.402344 72.558594 C 108.058594 74.125 102.894531 76.128906 97.792969 78.28125 C 92.703125 80.492188 87.855469 83.132812 83.351562 86.53125 L 83.191406 86.375 C 85.054688 84.226562 87.234375 82.398438 89.535156 80.703125 C 98.828125 74.042969 110.09375 70.925781 121.234375 68.949219 C 126.796875 68.007812 132.449219 67.496094 138.09375 67.460938 C 140.917969 67.441406 143.730469 67.523438 146.542969 67.761719 Z M 146.503906 68.054688 " fill-opacity="1" fill-rule="nonzero"/></g></g></g></g><g clip-path="url(#65f6262eca)"><g clip-path="url(#072f37adc2)"><g clip-path="url(#f46fa1aa3d)"><g clip-path="url(#00f27214c1)"><path fill="#ffdf35" d="M 149.984375 65.238281 C 137.429688 64.097656 124.605469 64.949219 112.433594 68.304688 C 100.421875 71.980469 88.785156 77.230469 78.953125 85.175781 C 78.953125 85.175781 78.792969 85.019531 78.792969 85.019531 C 83.09375 80.261719 88.382812 76.484375 93.988281 73.34375 C 101 69.449219 108.671875 66.632812 116.597656 65.257812 C 121.304688 64.488281 126.160156 63.972656 130.925781 63.824219 C 137.296875 63.585938 143.703125 64.003906 150.007812 65.042969 C 149.972656 65.019531 149.984375 65.238281 149.984375 65.238281 Z M 149.984375 65.238281 " fill-opacity="1" fill-rule="nonzero"/></g></g></g></g><g clip-path="url(#9b8e8ba599)"><g clip-path="url(#dd958e58f7)"><g clip-path="url(#7b2b60ad48)"><g clip-path="url(#c95117dbee)"><path fill="#ffdf35" d="M 119.71875 81.511719 C 110.238281 84.8125 99.554688 84.761719 90.035156 81.464844 C 86.652344 80.417969 83.246094 78.929688 80.226562 77.015625 C 75.773438 74.085938 71.671875 70.382812 68.722656 65.914062 C 68.722656 65.914062 68.96875 65.707031 68.96875 65.707031 C 72.8125 68.441406 76.523438 71.140625 80.441406 73.449219 C 84.328125 75.730469 88.257812 78.097656 92.507812 79.671875 C 96.808594 81.175781 101.320312 82.125 105.890625 82.429688 C 110.460938 82.734375 115.132812 82.257812 119.65625 81.203125 Z M 119.71875 81.511719 " fill-opacity="1" fill-rule="nonzero"/></g></g></g></g><g clip-path="url(#e24fdc6493)"><g clip-path="url(#873426f49b)"><g clip-path="url(#f900355f39)"><g clip-path="url(#6f0426b9d1)"><path fill="#ffdf35" d="M 112.71875 79.683594 C 107.960938 79.894531 103.058594 79.210938 98.503906 77.695312 C 96.195312 76.945312 93.824219 76.203125 91.820312 74.757812 C 89.796875 73.347656 88 71.667969 86.746094 69.503906 C 86.746094 69.503906 86.957031 69.269531 86.957031 69.269531 C 88.117188 69.675781 89.226562 70.15625 90.300781 70.609375 C 92.402344 71.59375 94.453125 72.492188 96.445312 73.71875 C 98.398438 74.921875 100.5 75.902344 102.625 76.691406 C 105.886719 77.921875 109.269531 78.808594 112.742188 79.328125 C 112.753906 79.390625 112.71875 79.683594 112.71875 79.683594 Z M 112.71875 79.683594 " fill-opacity="1" fill-rule="nonzero"/></g></g></g></g><g clip-path="url(#146481e697)"><g clip-path="url(#7e0bb9945f)"><g clip-path="url(#e6369ee4da)"><g clip-path="url(#7a6a284ea1)"><path fill="#b46500" d="M 143.019531 75.320312 C 138.675781 84.183594 133.140625 93.472656 123.804688 97.664062 C 120.664062 98.953125 117.347656 99.546875 114.011719 100.015625 C 112.152344 100.253906 110.242188 100.410156 108.410156 100.613281 L 108.324219 100.34375 C 110.796875 99.1875 113.695312 98.425781 116.289062 97.5625 C 118.441406 96.882812 120.582031 96.144531 122.648438 95.195312 C 124.609375 94.171875 126.652344 93.101562 128.476562 91.882812 C 131.476562 89.863281 133.960938 87.179688 136.3125 84.300781 C 138.628906 81.394531 140.714844 78.285156 142.738281 75.183594 C 142.773438 75.207031 143.019531 75.320312 143.019531 75.320312 Z M 143.019531 75.320312 " fill-opacity="1" fill-rule="nonzero"/></g></g></g></g><g clip-path="url(#a31f04cae5)"><g clip-path="url(#a71b119a41)"><g clip-path="url(#e2e9f2eeeb)"><g clip-path="url(#47cc394e46)"><path fill="#b46500" d="M 153.378906 78.070312 C 154.496094 82.582031 158.964844 85.574219 163.527344 84.707031 C 169.53125 83.582031 172.492188 76.074219 170.59375 70.667969 C 169.171875 66.851562 164.921875 65.117188 161.097656 64.570312 C 159.042969 64.308594 156.804688 64.558594 154.75 65.09375 C 148.292969 67.289062 144.695312 74.003906 143.019531 80.304688 C 143.019531 80.304688 142.753906 80.230469 142.753906 80.230469 C 143.425781 74 146.273438 67.527344 151.78125 64.058594 C 154.683594 62.34375 158.035156 61.617188 161.382812 61.84375 C 166.371094 62.320312 171.742188 65.390625 172.871094 70.597656 C 174.820312 78.855469 167.882812 88.738281 158.890625 85.207031 C 155.863281 84.027344 153.65625 81.222656 153.160156 78.082031 C 153.109375 78.15625 153.378906 78.070312 153.378906 78.070312 Z M 153.378906 78.070312 " fill-opacity="1" fill-rule="nonzero"/></g></g></g></g><g clip-path="url(#d3d398f774)"><g clip-path="url(#232cad9854)"><g clip-path="url(#0b310017a9)"><g clip-path="url(#3be4d38aa1)"><path fill="#cccccc" d="M 168.746094 84.121094 C 168.234375 84.410156 167.792969 84.753906 167.535156 85.21875 C 167.242188 85.65625 167.152344 86.183594 167.164062 86.71875 C 167.152344 86.976562 167.1875 87.320312 167.199219 87.539062 C 167.222656 87.820312 167.273438 88.0625 167.332031 88.371094 C 167.441406 88.921875 167.699219 89.410156 167.917969 89.875 L 169.511719 93.117188 L 166.792969 90.605469 C 166.363281 90.214844 165.984375 89.75 165.632812 89.246094 C 165.277344 88.742188 164.988281 88.230469 164.742188 87.644531 L 164.851562 87.558594 C 165.441406 87.792969 165.953125 88.132812 166.441406 88.515625 C 166.929688 88.894531 167.378906 89.25 167.757812 89.714844 L 166.632812 90.445312 C 166.390625 89.859375 166.292969 89.210938 166.234375 88.585938 C 166.171875 87.964844 166.210938 87.351562 166.308594 86.730469 C 166.371094 86.398438 166.433594 86.070312 166.566406 85.789062 C 166.703125 85.507812 166.898438 85.214844 167.109375 84.984375 C 167.523438 84.519531 168.097656 84.214844 168.675781 84.070312 Z M 168.746094 84.121094 " fill-opacity="1" fill-rule="nonzero"/></g></g></g></g><g clip-path="url(#c6660191c4)"><g clip-path="url(#c14a3fe7bf)"><g clip-path="url(#c836fed987)"><g clip-path="url(#44b82e77eb)"><path fill="#ffdf35" d="M 166.523438 77.378906 C 167.402344 77.96875 168.722656 77.738281 169.273438 76.835938 C 169.828125 75.933594 169.644531 74.699219 168.730469 74.085938 C 167.851562 73.496094 166.53125 73.726562 165.980469 74.628906 C 165.402344 75.566406 165.570312 76.742188 166.523438 77.378906 Z M 166.523438 77.378906 " fill-opacity="1" fill-rule="nonzero"/></g></g></g></g><g clip-path="url(#4e83bf76f1)"><g clip-path="url(#2c02331034)"><g clip-path="url(#7ccf7b78ca)"><g clip-path="url(#ad653a2627)"><path fill="#000000" d="M 167.320312 76.746094 C 168.746094 77.703125 170.21875 75.507812 168.789062 74.550781 C 167.363281 73.59375 165.890625 75.789062 167.320312 76.746094 Z M 167.320312 76.746094 " fill-opacity="1" fill-rule="nonzero"/></g></g></g></g></g></g></g></g><g clip-path="url(#d878f35aad)"><g transform="matrix(1, 0, 0, 1, 755, 316)"><g clip-path="url(#4f399aadeb)"><g clip-path="url(#76463f183f)"><path fill="#ffdf35" d="M 139.378906 132.78125 C 141.003906 138.6875 142.621094 144.570312 144.46875 150.410156 C 146.464844 156.734375 147.789062 163.6875 146.53125 170.28125 C 146.03125 172.898438 145.523438 175.292969 144.226562 177.664062 C 142.867188 180.144531 140.863281 182.113281 138.433594 183.550781 C 137.457031 184.128906 138.375 185.6875 139.316406 185.066406 C 140.152344 184.515625 140.933594 183.890625 141.65625 183.210938 C 141.777344 183.21875 141.902344 183.195312 142.035156 183.128906 C 149.503906 179.167969 151.011719 169.949219 150.226562 162.320312 C 149.714844 157.378906 148.757812 152.570312 148 147.667969 C 147.21875 142.597656 146.625 137.5 145.839844 132.429688 C 145.050781 127.328125 144.027344 122.449219 145.257812 117.308594 C 146.179688 113.441406 148.523438 109.660156 152.121094 107.753906 C 156.484375 105.433594 161.722656 106.890625 165.566406 109.539062 C 169.367188 112.152344 171.988281 115.8125 174.78125 119.398438 C 177.597656 123.015625 180.808594 126.398438 184.371094 129.304688 C 182.351562 127.972656 180.480469 126.292969 178.714844 124.75 C 174.972656 121.484375 171.652344 117.707031 167.722656 114.65625 C 164.152344 111.882812 159.71875 108.921875 155.023438 108.859375 C 150.890625 108.804688 146.765625 112.117188 147.316406 116.53125 C 147.324219 116.601562 147.34375 116.667969 147.367188 116.730469 C 144.503906 121.277344 147.601562 126.714844 147.929688 131.515625 C 147.929688 131.539062 147.933594 131.554688 147.9375 131.574219 C 147.902344 132.175781 147.871094 132.757812 147.84375 133.316406 C 147.628906 137.726562 148.695312 141.589844 150.417969 145.605469 C 150.492188 145.78125 150.570312 145.957031 150.648438 146.132812 C 148.671875 147.933594 149.667969 151.230469 150.21875 153.570312 C 151.179688 157.664062 152.445312 161.75 152.578125 165.984375 C 152.800781 173.25 148.925781 180.101562 142.628906 183.714844 C 141.71875 184.238281 142.539062 185.644531 143.449219 185.125 C 148.988281 181.953125 152.976562 176.320312 153.972656 169.996094 C 154.539062 166.40625 154.0625 162.796875 153.292969 159.277344 C 152.863281 157.316406 152.347656 155.375 151.882812 153.421875 C 151.53125 151.945312 150.570312 149.367188 151.40625 147.851562 C 152.882812 151.140625 154.382812 154.382812 155.273438 157.921875 C 156.488281 162.757812 156.738281 167.902344 156.253906 172.855469 C 154.460938 174.367188 153.46875 176.445312 152.429688 178.5625 C 150.945312 181.589844 149.019531 183.972656 145.933594 185.472656 C 145.007812 185.921875 145.816406 187.300781 146.742188 186.851562 C 149.363281 185.578125 151.496094 183.597656 152.9375 181.058594 C 153.957031 179.261719 154.691406 177.1875 155.925781 175.515625 C 155.285156 179.59375 153.808594 184.417969 149.785156 185.527344 C 148.699219 185.828125 149.15625 187.507812 150.253906 187.21875 C 153.65625 186.3125 155.933594 182.910156 157.046875 179.746094 C 158.457031 175.75 158.769531 171.203125 158.664062 166.996094 C 158.550781 162.582031 157.78125 158.128906 156.527344 153.898438 C 155.238281 149.523438 152.898438 145.644531 151.410156 141.363281 C 149.738281 136.5625 150.367188 131.890625 151.214844 126.996094 C 151.558594 125.011719 152.039062 122.84375 153.90625 121.75 C 155.601562 120.757812 157.789062 120.792969 159.625 121.351562 C 163.632812 122.574219 166.585938 126.144531 169.699219 128.753906 C 172.761719 131.320312 176.074219 133.503906 179.808594 134.96875 C 186.660156 137.664062 195.707031 136.757812 199.808594 129.980469 C 200.386719 129.589844 200.207031 128.472656 199.425781 128.484375 C 199.238281 128.429688 199.035156 128.433594 198.855469 128.519531 C 193.214844 128.789062 189.433594 124.433594 187.367188 119.554688 C 185.3125 114.714844 184.265625 109.417969 180.980469 105.183594 C 178.003906 101.347656 173.34375 98.554688 168.933594 96.6875 C 164.203125 94.6875 159.152344 94.085938 154.167969 95.398438 C 149.285156 96.683594 145.101562 99.691406 141.707031 103.394531 C 138.277344 107.136719 136.324219 111.632812 136.246094 116.734375 C 136.160156 122.289062 137.925781 127.496094 139.378906 132.78125 Z M 148.53125 170.378906 C 148.210938 173.414062 147.101562 176.382812 145.210938 178.71875 C 145.847656 177.648438 146.390625 176.53125 146.851562 175.382812 C 147.679688 173.304688 148.304688 171.328125 148.546875 169.097656 C 148.644531 168.199219 148.675781 167.300781 148.667969 166.402344 C 148.703125 167.714844 148.671875 169.039062 148.53125 170.378906 Z M 174.207031 116.238281 C 171.746094 112.839844 169.324219 109.519531 165.628906 107.378906 C 162.144531 105.359375 158.070312 104.671875 154.136719 105.535156 C 145.933594 107.335938 143.117188 116 143.164062 123.460938 C 143.195312 128.34375 143.90625 133.207031 144.828125 137.988281 C 145.820312 143.121094 146.535156 148.382812 147.144531 153.578125 C 147.234375 154.351562 147.339844 155.117188 147.445312 155.886719 C 147.210938 154.734375 146.949219 153.589844 146.65625 152.445312 C 145.921875 149.550781 145.429688 146.589844 144.722656 143.683594 C 143.34375 138.011719 141.71875 132.390625 140.515625 126.675781 C 140.546875 126.632812 140.574219 126.582031 140.59375 126.527344 C 142.582031 121.644531 141.839844 116.28125 143.414062 111.320312 C 145.238281 105.5625 152.171875 102.570312 157.769531 102.332031 C 169.941406 101.816406 175.132812 114.449219 181.949219 122.203125 C 183.933594 124.457031 186.203125 126.425781 188.765625 127.996094 C 190.398438 128.996094 192.601562 130.476562 194.726562 130.832031 C 193.050781 131.40625 191.308594 131.667969 189.542969 131.03125 C 187.257812 130.203125 185.332031 128.347656 183.554688 126.746094 C 180.054688 123.589844 176.964844 120.054688 174.207031 116.238281 Z M 190.359375 127.289062 C 190.375 127.296875 190.382812 127.308594 190.394531 127.320312 C 190.382812 127.3125 190.371094 127.304688 190.355469 127.296875 C 190.359375 127.292969 190.359375 127.289062 190.359375 127.289062 Z M 167.703125 102.867188 C 170.558594 102.828125 173.148438 104.359375 174.929688 106.589844 C 176.871094 109.027344 177.671875 112.089844 178.996094 114.859375 C 179.4375 115.777344 179.9375 116.664062 180.480469 117.523438 C 177.519531 113.324219 174.859375 108.898438 171.027344 105.398438 C 169.988281 104.445312 168.875 103.59375 167.703125 102.867188 Z M 153.21875 111.125 C 155.707031 110.609375 158.164062 111.230469 160.375 112.398438 C 164.511719 114.582031 168.269531 117.652344 171.789062 120.707031 C 175.277344 123.726562 178.539062 127.015625 182.179688 129.859375 C 184.113281 131.371094 186.121094 132.511719 188.289062 133.066406 C 185.933594 132.839844 183.613281 132.160156 181.546875 131.003906 C 179.355469 129.78125 177.6875 127.851562 175.949219 126.082031 C 174.074219 124.171875 172.085938 122.390625 170.144531 120.542969 C 166.707031 117.277344 162.894531 114.105469 158.195312 112.957031 C 154.871094 112.140625 151.34375 112.691406 148.855469 114.96875 C 149.269531 112.917969 151.023438 111.582031 153.21875 111.125 Z M 151.882812 120.441406 C 152.015625 120.003906 152.203125 119.578125 152.476562 119.175781 C 153.570312 117.566406 155.601562 117.527344 156.777344 118.695312 C 154.996094 118.769531 153.273438 119.320312 151.882812 120.441406 Z M 178.457031 132.625 C 174.78125 130.605469 171.601562 127.753906 168.574219 124.882812 C 165.925781 122.375 163.050781 119.648438 159.34375 118.898438 C 159.046875 118.839844 158.746094 118.796875 158.445312 118.757812 C 157.648438 116.679688 155.460938 115.472656 153.167969 116.417969 C 150.492188 117.523438 149.375 120.882812 149.523438 123.613281 C 149.097656 124.550781 148.789062 125.570312 148.558594 126.625 C 147.703125 121.964844 147.070312 116.953125 152.378906 115.207031 C 158.835938 113.085938 164.324219 118.519531 168.878906 122.246094 C 173.308594 125.875 176.953125 131.015625 182.351562 133.300781 C 184.683594 134.289062 187.246094 134.730469 189.777344 134.730469 C 185.960938 135.3125 181.773438 134.449219 178.457031 132.625 Z M 140.648438 110.277344 C 142.617188 105.617188 146.992188 102.046875 151.21875 99.496094 C 153.601562 98.058594 155.945312 97.359375 158.738281 97.335938 C 161.359375 97.316406 163.886719 97.902344 166.371094 98.699219 C 171.265625 100.273438 176.765625 103.199219 179.8125 107.460938 C 183.242188 112.269531 184.066406 118.390625 187.144531 123.398438 C 187.183594 123.457031 187.222656 123.515625 187.257812 123.578125 C 187.019531 123.316406 186.785156 123.058594 186.546875 122.804688 C 185.496094 121.679688 184.457031 120.539062 183.492188 119.335938 C 181.222656 116.5 179.882812 113.476562 178.480469 110.164062 C 176.355469 105.140625 172.28125 100.800781 166.378906 101.597656 C 166.152344 101.625 166.007812 101.738281 165.9375 101.886719 C 163.097656 100.503906 159.96875 99.867188 156.667969 100.378906 C 153.8125 100.820312 151.109375 101.949219 148.6875 103.5 C 146.546875 104.867188 144.488281 106.324219 143.097656 108.5 C 140.117188 113.171875 141.121094 118.730469 139.964844 123.847656 C 139.160156 119.320312 138.824219 114.597656 140.648438 110.277344 Z M 140.648438 110.277344 " fill-opacity="1" fill-rule="nonzero"/></g><g clip-path="url(#89de936c22)"><path fill="#b37101" d="M 1.574219 185.898438 C 9.347656 185.664062 17.195312 185.949219 24.96875 186.132812 C 28.675781 186.222656 32.40625 186.449219 36.109375 186.335938 C 39.222656 186.238281 42.191406 185.667969 44.746094 183.792969 C 47.042969 182.105469 48.824219 179.8125 51.164062 178.167969 C 52.265625 177.394531 54.523438 175.753906 55.824219 176.863281 C 57.039062 177.898438 56.4375 179.859375 55.847656 181.011719 C 54.59375 183.445312 52.449219 185.996094 53.277344 188.949219 C 54.097656 191.871094 56.945312 191.804688 59.042969 190.277344 C 64.082031 186.609375 67.808594 181.152344 71.992188 176.605469 C 74.199219 174.210938 76.605469 171.871094 79.378906 170.128906 C 80 169.738281 80.804688 169.230469 81.5625 169.261719 C 83.277344 169.332031 82.878906 171.007812 82.550781 172.035156 C 82.113281 173.402344 81.453125 174.703125 80.710938 175.929688 C 77.832031 180.703125 73.5 184.265625 70.234375 188.730469 C 68.804688 190.683594 67.125 193.34375 67.023438 195.84375 C 66.886719 199.152344 70.667969 199.417969 73.09375 198.828125 C 76.722656 197.949219 79.871094 195.277344 82.746094 193.027344 C 85.890625 190.5625 88.902344 187.941406 91.890625 185.285156 C 96.28125 181.375 101.410156 177.808594 107.019531 175.765625 C 107.378906 175.691406 107.746094 175.628906 108.125 175.582031 C 110.722656 175.269531 113.351562 175.5 115.839844 176.300781 C 120.671875 177.859375 124.722656 181.121094 129.144531 183.511719 C 135.433594 186.914062 142.460938 189.175781 149.589844 189.609375 C 151.851562 190.019531 154.152344 190.136719 156.605469 189.777344 C 157.46875 189.652344 158.320312 189.507812 159.164062 189.339844 C 159.769531 189.28125 160.375 189.1875 160.988281 189.046875 C 162.046875 188.796875 163.085938 188.453125 164.097656 188.03125 C 165.949219 187.398438 167.753906 186.597656 169.496094 185.578125 C 173.226562 183.398438 176.320312 180.339844 178.40625 176.539062 C 179.675781 174.21875 180.390625 171.851562 180.542969 169.390625 C 180.789062 168.03125 180.835938 166.632812 180.710938 165.253906 C 180.449219 162.457031 179.609375 159.890625 178.359375 157.53125 C 178.335938 157.484375 178.320312 157.433594 178.300781 157.390625 C 176.242188 152.824219 173.15625 149.109375 169.660156 145.6875 C 164.324219 139.152344 156.113281 134.070312 157.824219 124.660156 C 158.039062 123.46875 158.339844 122.289062 158.699219 121.121094 C 158.921875 120.382812 159.171875 119.648438 159.4375 118.921875 C 159.785156 117.976562 160.160156 117.042969 160.554688 116.113281 C 160.84375 115.441406 161.140625 114.777344 161.445312 114.113281 C 161.578125 113.816406 161.714844 113.519531 161.855469 113.226562 C 162.160156 112.570312 162.46875 111.921875 162.78125 111.273438 C 163.210938 110.375 163.640625 109.484375 164.0625 108.601562 C 164.121094 108.476562 164.183594 108.347656 164.242188 108.21875 C 164.441406 107.796875 164.648438 107.375 164.851562 106.953125 C 165.269531 106.082031 165.691406 105.210938 166.121094 104.34375 C 166.199219 104.1875 166.277344 104.023438 166.355469 103.867188 C 166.832031 103.074219 167.316406 102.289062 167.804688 101.503906 C 168.1875 100.882812 168.570312 100.261719 168.957031 99.640625 C 169.4375 98.875 169.917969 98.105469 170.394531 97.339844 C 170.78125 96.71875 171.167969 96.09375 171.554688 95.472656 C 172.632812 93.726562 173.683594 91.964844 174.703125 90.191406 C 175.082031 89.605469 175.457031 89.019531 175.828125 88.429688 C 176.324219 87.632812 176.816406 86.832031 177.289062 86.019531 C 177.515625 85.628906 177.738281 85.242188 177.957031 84.847656 C 179.242188 83.152344 180.320312 81.386719 181.234375 79.414062 C 183.261719 75.011719 184.304688 69.734375 183.074219 64.980469 C 182.585938 63.097656 181.703125 60.554688 179.949219 59.460938 C 178.175781 58.351562 175.753906 59.226562 174.132812 60.203125 C 170.6875 62.277344 168.367188 65.824219 167.070312 69.550781 C 166.550781 71.03125 166.222656 72.5625 165.8125 74.074219 C 165.597656 74.867188 165.359375 75.65625 165.058594 76.425781 C 164.824219 77.039062 164.515625 77.605469 164.167969 78.152344 C 163.800781 78.722656 163.390625 79.269531 162.964844 79.804688 C 162.355469 80.566406 160.304688 83.199219 159.625 81.246094 C 159.117188 79.78125 159.183594 78.042969 159.058594 76.503906 C 158.921875 74.875 158.78125 73.246094 158.613281 71.617188 C 158.273438 68.398438 157.859375 65.183594 157.570312 61.960938 C 157.492188 58.863281 157.425781 55.765625 157.359375 52.667969 C 157.085938 39.105469 156.941406 25.542969 156.917969 11.976562 C 156.917969 10.949219 155.316406 10.945312 155.320312 11.976562 C 155.339844 24.347656 155.460938 36.71875 155.691406 49.089844 C 155.761719 52.886719 155.847656 56.679688 155.9375 60.476562 C 155.886719 60.585938 155.855469 60.714844 155.867188 60.867188 C 155.910156 61.398438 155.949219 61.933594 155.988281 62.46875 C 156.027344 64.082031 156.0625 65.699219 156.105469 67.316406 C 156.191406 70.460938 156.285156 73.605469 156.382812 76.75 C 156.453125 78.933594 156.191406 81.53125 157.046875 83.597656 C 157.710938 85.207031 159.199219 86.191406 160.960938 85.929688 C 161.890625 85.789062 162.714844 85.382812 163.457031 84.835938 C 164.371094 84.160156 165.160156 83.277344 165.855469 82.402344 C 165.988281 82.238281 166.117188 82.074219 166.242188 81.914062 C 167.820312 79.875 169.167969 77.644531 170.960938 75.78125 C 172.625 74.054688 176.925781 71.625 177.71875 75.515625 C 178.214844 77.964844 176.734375 80.71875 175.761719 82.855469 C 175.21875 84.046875 174.644531 85.21875 174.050781 86.382812 C 173.621094 87.21875 173.179688 88.050781 172.730469 88.875 C 172.519531 89.265625 172.308594 89.65625 172.089844 90.042969 C 170.886719 92.207031 169.625 94.335938 168.347656 96.453125 C 167.863281 97.261719 167.375 98.070312 166.886719 98.875 C 166.34375 99.777344 165.800781 100.675781 165.261719 101.578125 C 164.898438 102.1875 164.535156 102.796875 164.175781 103.40625 C 164.011719 103.679688 163.847656 103.957031 163.6875 104.230469 C 163.339844 104.828125 162.992188 105.425781 162.644531 106.027344 C 162.355469 106.53125 162.0625 107.035156 161.777344 107.542969 C 161.304688 108.382812 160.835938 109.226562 160.378906 110.082031 C 160.050781 110.695312 159.730469 111.3125 159.414062 111.9375 C 159.214844 112.332031 159.015625 112.730469 158.824219 113.128906 C 158.511719 113.777344 158.207031 114.429688 157.914062 115.089844 C 157.644531 115.703125 157.382812 116.320312 157.132812 116.941406 C 156.929688 117.453125 156.730469 117.96875 156.542969 118.484375 C 156.515625 118.5625 156.488281 118.640625 156.460938 118.71875 C 156.375 118.960938 156.289062 119.199219 156.207031 119.441406 C 155.867188 119.992188 155.566406 120.578125 155.296875 121.183594 C 154.613281 122.726562 154.160156 124.402344 153.953125 125.933594 C 153.558594 128.832031 153.941406 131.851562 155.1875 134.511719 C 156.535156 137.394531 158.863281 139.582031 160.960938 141.914062 C 163.1875 144.382812 165.199219 147.03125 166.949219 149.859375 C 170.367188 155.390625 172.484375 162.171875 170.941406 168.664062 C 169.363281 175.296875 163.816406 179.914062 157.917969 182.808594 C 157.394531 183.066406 156.859375 183.300781 156.316406 183.523438 C 155.894531 183.5625 155.472656 183.597656 155.050781 183.625 C 154.269531 183.679688 153.484375 183.703125 152.703125 183.710938 C 152.140625 183.71875 151.578125 183.714844 151.015625 183.691406 C 150.28125 183.667969 149.550781 183.613281 148.816406 183.546875 C 147.957031 183.464844 147.097656 183.351562 146.246094 183.207031 C 145.527344 183.085938 144.8125 182.945312 144.105469 182.777344 C 143.753906 182.695312 143.410156 182.613281 143.0625 182.519531 C 142.3125 182.316406 141.570312 182.085938 140.835938 181.828125 C 139.464844 181.351562 138.121094 180.789062 136.808594 180.121094 C 136.398438 179.910156 135.992188 179.695312 135.589844 179.464844 C 135.074219 179.171875 134.566406 178.863281 134.070312 178.542969 C 131.175781 176.691406 128.59375 174.40625 126.414062 171.734375 C 123.617188 168.3125 121.707031 163.34375 117.871094 160.917969 C 113.953125 158.445312 109.554688 161.109375 106.230469 163.363281 C 104.390625 164.609375 102.492188 165.96875 100.867188 167.488281 C 99.328125 168.929688 97.996094 170.59375 96.523438 172.105469 C 95.074219 173.589844 93.53125 175.066406 91.84375 176.273438 C 91.039062 176.851562 90.191406 177.378906 89.335938 177.882812 C 88.625 178.304688 87.125 179.429688 86.253906 179.265625 C 85.851562 179.1875 85.726562 178.921875 85.753906 178.570312 C 87.214844 174.753906 90.066406 171.675781 92.535156 168.460938 C 94.980469 165.277344 97.800781 161.457031 97.640625 157.210938 C 97.574219 155.425781 96.488281 154.03125 94.667969 153.832031 C 92.59375 153.609375 90.527344 154.789062 88.800781 155.78125 C 84.554688 158.222656 80.929688 161.578125 77.25 164.769531 C 75.289062 166.46875 73.296875 168.148438 71.15625 169.617188 C 69.722656 170.605469 67.800781 172.035156 65.9375 172.65625 C 65.164062 172.707031 64.363281 172.210938 64.113281 171.386719 C 64.054688 171.1875 64.050781 170.96875 64.085938 170.746094 C 64.480469 170.296875 64.929688 169.898438 65.332031 169.457031 C 66.035156 168.683594 66.566406 167.847656 66.722656 166.792969 C 66.996094 164.957031 65.945312 163.390625 64.085938 163.15625 C 62.015625 162.898438 59.890625 164.03125 58.109375 164.949219 C 56.054688 166.011719 54.1875 167.15625 52.382812 168.609375 C 50.511719 170.117188 48.746094 171.664062 46.957031 173.277344 C 45.144531 174.917969 43.058594 176.191406 41.042969 177.566406 C 38.75 179.136719 36.246094 180.535156 33.601562 181.402344 C 30.347656 182.46875 27.082031 182.929688 23.726562 183.527344 C 21.402344 183.945312 19.054688 184.195312 16.699219 184.324219 C 13.347656 184.335938 10 184.316406 6.660156 184.234375 C 4.90625 184.125 3.15625 183.980469 1.414062 183.816406 C 0.917969 183.769531 0.699219 184.183594 0.761719 184.574219 C 0.539062 185.128906 0.804688 185.921875 1.574219 185.898438 Z M 1.574219 185.898438 " fill-opacity="1" fill-rule="nonzero"/></g><path fill="#f6c75f" d="M 131.476562 139.746094 C 133.910156 143.398438 137.410156 145.351562 141.402344 146.9375 C 142.148438 147.234375 142.894531 147.503906 143.644531 147.75 C 144.335938 147.972656 145.03125 148.167969 145.734375 148.339844 C 145.914062 148.382812 146.09375 148.433594 146.273438 148.472656 C 146.355469 148.5 146.4375 148.53125 146.519531 148.5625 C 147.09375 148.773438 147.667969 148.980469 148.242188 149.191406 C 148.65625 149.34375 149.070312 149.492188 149.484375 149.644531 C 150.035156 149.847656 150.585938 150.050781 151.140625 150.25 C 151.671875 150.445312 152.203125 150.644531 152.738281 150.84375 C 153.589844 151.15625 154.445312 151.46875 155.296875 151.789062 C 155.515625 151.929688 155.746094 152.078125 155.980469 152.230469 C 157.339844 153.117188 158.902344 154.207031 160.042969 155.476562 C 160.703125 156.429688 161.1875 157.511719 161.398438 158.777344 C 161.84375 161.484375 160.554688 164.214844 158.621094 166.070312 C 158.410156 166.273438 158.195312 166.46875 157.96875 166.648438 C 157.914062 166.695312 157.871094 166.742188 157.835938 166.792969 C 157.398438 167.035156 156.941406 167.253906 156.480469 167.453125 C 155.71875 167.777344 154.941406 168.046875 154.167969 168.269531 C 153.714844 168.398438 153.265625 168.515625 152.820312 168.613281 C 152.707031 168.640625 152.589844 168.660156 152.472656 168.683594 C 151.738281 168.820312 151.003906 168.867188 150.273438 168.878906 C 149.730469 168.890625 149.1875 168.878906 148.640625 168.871094 C 148.617188 168.871094 148.59375 168.867188 148.570312 168.867188 C 147.964844 168.859375 147.363281 168.855469 146.757812 168.882812 C 146.429688 168.898438 146.105469 168.917969 145.777344 168.957031 C 143.976562 169.171875 142.273438 169.746094 140.714844 170.675781 C 137.65625 172.488281 135.640625 175.429688 134.066406 178.542969 C 134.566406 178.863281 135.070312 179.171875 135.589844 179.464844 C 135.992188 179.695312 136.398438 179.914062 136.804688 180.121094 C 138.425781 177.519531 140.234375 174.929688 142.792969 173.21875 C 143.882812 172.492188 145 172.035156 146.21875 171.847656 C 146.652344 171.777344 147.101562 171.742188 147.566406 171.742188 C 147.734375 171.742188 147.898438 171.742188 148.0625 171.746094 C 148.152344 171.746094 148.238281 171.746094 148.324219 171.746094 C 148.835938 171.75 149.339844 171.757812 149.839844 171.753906 C 150.53125 171.75 151.21875 171.722656 151.910156 171.652344 C 152.464844 171.597656 153.019531 171.511719 153.582031 171.378906 C 153.625 171.367188 153.667969 171.355469 153.710938 171.34375 C 154.636719 171.113281 155.550781 170.800781 156.429688 170.414062 C 157.210938 170.066406 157.960938 169.660156 158.675781 169.199219 C 162.476562 166.746094 165.144531 162.722656 164.507812 157.886719 C 163.742188 152.066406 158.351562 148.308594 153.25 145.859375 C 152.378906 145.4375 151.515625 145.054688 150.683594 144.707031 C 150.429688 144.601562 150.171875 144.5 149.917969 144.394531 C 149.074219 144.046875 148.222656 143.707031 147.375 143.367188 C 146.800781 143.136719 146.230469 142.910156 145.65625 142.679688 C 145.21875 142.503906 144.78125 142.328125 144.34375 142.148438 C 143.449219 141.78125 142.558594 141.410156 141.671875 141.023438 C 141.492188 140.945312 141.308594 140.867188 141.128906 140.785156 C 138.03125 139.40625 134.53125 137.566406 133.058594 134.335938 C 132.246094 132.558594 132.050781 130.753906 131.933594 128.832031 C 131.878906 127.910156 131.757812 127.09375 132.011719 126.1875 C 132.285156 125.207031 132.761719 124.21875 133.261719 123.335938 C 134.089844 121.863281 135.167969 120.628906 136.347656 119.441406 C 136.273438 118.546875 136.234375 117.644531 136.246094 116.730469 C 136.25 116.59375 136.257812 116.460938 136.261719 116.324219 C 135.074219 117.234375 134.019531 118.320312 133.1875 119.40625 C 133.121094 119.496094 133.054688 119.585938 132.988281 119.679688 C 127.878906 124.777344 127.539062 133.839844 131.476562 139.746094 Z M 131.476562 139.746094 " fill-opacity="1" fill-rule="nonzero"/><g clip-path="url(#994725ddfd)"><path fill="#f6c75f" d="M 163.835938 42.476562 C 163.699219 47.0625 163.847656 51.660156 163.863281 56.246094 C 163.882812 60.84375 164.09375 65.421875 164.074219 70.019531 C 164.066406 72.3125 164.078125 74.609375 164.125 76.902344 C 164.132812 77.3125 164.152344 77.730469 164.167969 78.148438 C 164.246094 79.925781 164.355469 81.765625 164.003906 83.484375 C 163.917969 83.894531 163.714844 84.351562 163.457031 84.832031 C 162.273438 87.050781 159.9375 89.832031 162.628906 91.585938 C 163.972656 92.460938 165.390625 91.6875 166.613281 91.019531 C 168.550781 89.960938 170.570312 89.292969 172.730469 88.871094 C 172.800781 88.859375 172.875 88.839844 172.945312 88.828125 C 173.847656 88.660156 174.832031 88.496094 175.824219 88.429688 C 177.269531 88.332031 178.726562 88.441406 179.96875 89.066406 C 181.90625 90.042969 182.851562 92.019531 182.824219 94.140625 C 182.785156 97.421875 180.960938 100.300781 178.734375 102.753906 C 179.371094 103.34375 179.972656 103.96875 180.523438 104.621094 C 183.992188 99.875 186.710938 93.597656 183.167969 88.65625 C 181.691406 86.59375 179.550781 85.996094 177.289062 86.019531 C 176.21875 86.03125 175.121094 86.179688 174.050781 86.378906 C 173.964844 86.394531 173.878906 86.410156 173.792969 86.429688 C 171.890625 86.800781 170.078125 87.410156 168.289062 88.152344 C 167.300781 88.5625 166.332031 88.996094 165.359375 89.445312 C 164.839844 89.683594 163.738281 90.394531 163.496094 89.058594 C 163.382812 88.425781 164.171875 87.519531 164.480469 87.019531 C 165.34375 85.625 165.714844 84.042969 165.855469 82.398438 C 166.046875 80.238281 165.839844 77.976562 165.828125 75.917969 C 165.828125 75.300781 165.820312 74.6875 165.8125 74.074219 C 165.761719 69.878906 165.625 65.683594 165.675781 61.492188 C 165.78125 52.085938 165.191406 42.6875 165.308594 33.292969 C 165.4375 22.578125 165.519531 11.867188 165.167969 1.160156 C 165.128906 -0.0078125 163.367188 -0.015625 163.351562 1.160156 C 163.222656 10.34375 163.421875 19.515625 163.601562 28.703125 C 163.6875 33.300781 163.96875 37.871094 163.835938 42.476562 Z M 163.835938 42.476562 " fill-opacity="1" fill-rule="nonzero"/></g></g></g></g></svg>